<svg xmlns="http://www.w3.org/2000/svg" xmlns:xlink="http://www.w3.org/1999/xlink" viewBox="0 0 647.83 706.13"><defs><style>.cls-1{opacity:0.98;}.cls-2{fill:url(#名称未設定グラデーション_2);}.cls-3{fill:#a49885;}.cls-4{fill:#004f04;}.cls-5{fill:url(#名称未設定グラデーション_11);}.cls-6{fill:url(#名称未設定グラデーション_11-2);}.cls-7{fill:url(#名称未設定グラデーション_11-3);}.cls-8{fill:url(#名称未設定グラデーション_11-4);}.cls-9{fill:url(#名称未設定グラデーション_11-5);}.cls-10{fill:url(#名称未設定グラデーション_11-6);}.cls-11,.cls-12{isolation:isolate;font-family:YuMincho-Demibold, Yu Mincho;font-weight:300;}.cls-11{font-size:40px;}.cls-11,.cls-12,.cls-13{fill:#fff;}.cls-12{font-size:45px;}.cls-14{opacity:0.89;}.cls-15{fill:url(#名称未設定グラデーション_10);}.cls-16{fill:url(#名称未設定グラデーション_11-7);}.cls-17{fill:url(#名称未設定グラデーション_10-2);}.cls-18{fill:url(#名称未設定グラデーション_11-8);}</style><linearGradient id="名称未設定グラデーション_2" x1="-290.05" y1="6560.13" x2="188.41" y2="6283.9" gradientTransform="matrix(1, 0, 0, -1, 385.4, 6785.53)" gradientUnits="userSpaceOnUse"><stop offset="0" stop-color="#055209" stop-opacity="0.98"/><stop offset="0.01" stop-color="#065e0e" stop-opacity="0.98"/><stop offset="0.02" stop-color="#066f16" stop-opacity="0.98"/><stop offset="0.03" stop-color="#07791b" stop-opacity="0.99"/><stop offset="0.05" stop-color="#077c1c" stop-opacity="0.99"/><stop offset="0.05" stop-color="#077d1c" stop-opacity="0.99"/><stop offset="0.06" stop-color="#03881f" stop-opacity="0.99"/><stop offset="0.07" stop-color="#028f21" stop-opacity="0.99"/><stop offset="0.1" stop-color="#019121" stop-opacity="0.99"/><stop offset="0.13" stop-color="#019121" stop-opacity="0.99"/><stop offset="0.15" stop-color="#019221" stop-opacity="0.99"/><stop offset="0.15" stop-color="#009422"/><stop offset="0.44" stop-color="#077b1c" stop-opacity="0.99"/><stop offset="0.79" stop-color="#0e6316" stop-opacity="0.98"/><stop offset="1" stop-color="#105a14" stop-opacity="0.98"/></linearGradient><linearGradient id="名称未設定グラデーション_11" x1="-397.74" y1="6784.37" x2="239.58" y2="6338.11" gradientTransform="matrix(1, 0, 0, -1, 385.4, 6785.53)" gradientUnits="userSpaceOnUse"><stop offset="0.07" stop-color="#e3ca70"/><stop offset="0.11" stop-color="#e3cb72"/><stop offset="0.12" stop-color="#e5cd79"/><stop offset="0.13" stop-color="#e7d284"/><stop offset="0.14" stop-color="#ead895"/><stop offset="0.14" stop-color="#eee0ab"/><stop offset="0.15" stop-color="#f3eac6"/><stop offset="0.15" stop-color="#f4ebc9"/><stop offset="0.15" stop-color="#f7f1da"/><stop offset="0.15" stop-color="#fbf7eb"/><stop offset="0.15" stop-color="#fdfcf6"/><stop offset="0.16" stop-color="#fffefd"/><stop offset="0.17" stop-color="#fff"/><stop offset="0.19" stop-color="#f6eed0"/><stop offset="0.21" stop-color="#ebd999"/><stop offset="0.22" stop-color="#e7d183"/><stop offset="0.41" stop-color="#e4cc75"/><stop offset="0.57" stop-color="#e3ca70"/><stop offset="0.74" stop-color="#e1c86f"/><stop offset="0.8" stop-color="#dcc16b"/><stop offset="0.84" stop-color="#d2b664"/><stop offset="0.87" stop-color="#c5a55a"/><stop offset="0.9" stop-color="#b38f4c"/><stop offset="0.93" stop-color="#9d743c"/><stop offset="0.94" stop-color="#966b37"/></linearGradient><linearGradient id="名称未設定グラデーション_11-2" x1="-542.49" y1="6850.1" x2="299.16" y2="6260.77" xlink:href="#名称未設定グラデーション_11"/><linearGradient id="名称未設定グラデーション_11-3" x1="-363.19" y1="6669.74" x2="239.26" y2="6247.9" xlink:href="#名称未設定グラデーション_11"/><linearGradient id="名称未設定グラデーション_11-4" x1="-338.77" y1="6588.52" x2="211.35" y2="6203.34" xlink:href="#名称未設定グラデーション_11"/><linearGradient id="名称未設定グラデーション_11-5" x1="-329.08" y1="6529.24" x2="185.27" y2="6169.08" xlink:href="#名称未設定グラデーション_11"/><linearGradient id="名称未設定グラデーション_11-6" x1="-354.98" y1="6490.17" x2="219.57" y2="6087.85" xlink:href="#名称未設定グラデーション_11"/><linearGradient id="名称未設定グラデーション_10" x1="-384.05" y1="6153.67" x2="261.06" y2="6153.67" gradientTransform="matrix(1, 0, 0, -1, 385.4, 6785.53)" gradientUnits="userSpaceOnUse"><stop offset="0" stop-color="#055209"/><stop offset="0.01" stop-color="#185f1c"/><stop offset="0.03" stop-color="#558957"/><stop offset="0.06" stop-color="#89ad8b"/><stop offset="0.08" stop-color="#b3cbb4"/><stop offset="0.11" stop-color="#d4e1d5"/><stop offset="0.13" stop-color="#ecf2ec"/><stop offset="0.15" stop-color="#fafcfa"/><stop offset="0.17" stop-color="#fff"/><stop offset="0.29" stop-color="#acc6ae"/><stop offset="0.43" stop-color="#538856"/><stop offset="0.52" stop-color="#1b611e"/><stop offset="0.57" stop-color="#055209"/><stop offset="0.89" stop-color="#055209"/><stop offset="0.94" stop-color="#055209"/></linearGradient><linearGradient id="名称未設定グラデーション_11-7" x1="-385.32" y1="6153.43" x2="261.22" y2="6153.43" xlink:href="#名称未設定グラデーション_11"/><linearGradient id="名称未設定グラデーション_10-2" x1="-7705.35" y1="-2205.4" x2="-7060.24" y2="-2205.4" gradientTransform="matrix(-1, 0, 0, 1, -7058.84, 2279.42)" xlink:href="#名称未設定グラデーション_10"/><linearGradient id="名称未設定グラデーション_11-8" x1="-384.47" y1="6711.5" x2="262.07" y2="6711.5" xlink:href="#名称未設定グラデーション_11"/></defs><g id="レイヤー_2" data-name="レイヤー 2"><g id="レイヤー_8" data-name="レイヤー 8"><g id="ヘッダーロゴw100_h109" data-name="ヘッダーロゴw100*h109"><g id="ロゴ背景_枠線" data-name="ロゴ背景＆枠線" class="cls-1"><path id="背景" class="cls-2" d="M334.6,634.9c-153.43,0-277.81-121.5-277.81-271.37S181.17,92.16,334.6,92.16s277.81,121.5,277.81,271.37c0,72-29.27,141-81.37,191.89C479.05,606.48,408.32,635.1,334.6,634.9Z"/><path id="枠線内側" class="cls-3" d="M334.6,96.26C485.21,96.46,607.15,215.9,606.94,363s-122.47,266.24-273.09,266S61.31,509.42,61.51,362.3c.15-106.94,65.75-203.43,166.6-245a277.4,277.4,0,0,1,106.49-21m0-8.21c-155.75,0-282,123.34-282,275.48S178.85,639,334.6,639s282-123.34,282-275.48S490.35,88.05,334.6,88.05Z"/><path id="枠線外" class="cls-4" d="M334.6,88.05c155.75,0,282,123.34,282,275.48S490.35,639,334.6,639s-282-123.34-282-275.48S178.85,88.05,334.6,88.05m0-14c-163.18.2-295.29,129.57-295.09,289S172.15,651.5,335.32,651.31s295.29-129.57,295.09-289c-.15-115.86-71.21-220.41-180.47-265.5A300.54,300.54,0,0,0,334.6,74.09Z"/></g><g id="Henrik"><path id="k" class="cls-5" d="M527.2,392a95.83,95.83,0,0,0,9-8l8.4-8.59q6.5-6.72,6.49-9.44a3.37,3.37,0,0,0-.15-1q-.65-1.94-7.21-2.24c-.84,0-1.27-.68-1.27-2s.42-1.78,1.27-1.78Q549,359,560,359q1.57,0,15-.47c.84,0,1.27.65,1.27,1.94s-.37,2-1.11,2A33.47,33.47,0,0,0,565,365.65q-5.16,2.4-13,9.67L544.75,382a36.45,36.45,0,0,1-3.09,2.86q14,19.57,24.48,33,5,6,7,7.39c1.32.82,3.88,1.42,7.68,1.78.84.1,1.27.72,1.27,1.85s-.53,1.78-1.59,1.78l-13-.45q-9.12,0-13.15.14c-1.22-2.1-2.73-4.57-4.51-7.39q-15-21.66-19.51-27.77l-3.12,2.39v10.35q0,13.92,1.12,16.64a4.27,4.27,0,0,0,3.2,2.31,46.79,46.79,0,0,0,5.66.7c1,.11,1.43.72,1.43,1.86s-.47,1.78-1.43,1.78q-9.42-.46-17.48-.46-9.89,0-18.83.46c-1.07,0-1.6-.59-1.6-1.78s.48-1.75,1.44-1.86a36.83,36.83,0,0,0,5.92-.82,3.86,3.86,0,0,0,2.64-2.17q1.11-2.4,1.12-16.49V336.2q0-10.05-1-13.46a4.63,4.63,0,0,0-4.87-3.33h-4.5c-.85-.19-1.32-.78-1.43-2a7.34,7.34,0,0,1-.08-.82c0-.82.61-1.29,1.82-1.55a178,178,0,0,0,26.3-6.89c1.27,0,1.91.42,1.91,1.24-.64,15.63-1,28.58-1.38,38.85Z"/><path id="i" class="cls-6" d="M465.88,384.38q0-9.66-.84-13.39c-.68-2.16-2.27-3.25-4.75-3.14H459l-4.2.82h-.95a3.31,3.31,0,0,1-1.11-2.4,7,7,0,0,1-.09-.92c0-.78.61-1.27,1.83-1.48q13.32-3,26.3-7.27c1.26,0,1.9.54,1.9,1.64-.43,10.32-.64,19.68-.89,28.08v20.75c.25,9.59.62,15.24,1.36,16.94a4.67,4.67,0,0,0,3.49,2.17q1.18.22,5.78.53c.74.11,1.11.83,1.11,2s-.37,1.93-1.11,1.93c-1.32,0-3.33-.1-6-.15q-8.32-.3-12-.31-1,0-18.38.46c-1.05,0-1.58-.64-1.58-1.93s.48-2,1.43-2a37.56,37.56,0,0,0,5.88-.68,4.58,4.58,0,0,0,2.69-2q1.35-2.16,1.34-10.06V384.4Zm7-71.89a10.42,10.42,0,0,1,7.77,3.64,10.06,10.06,0,0,1,3,7,11.58,11.58,0,0,1-10.78,10.68,11,11,0,0,1-8.08-3.71,9.76,9.76,0,0,1,.84-14.78,10.64,10.64,0,0,1,7.24-2.87Z"/><path id="r" class="cls-7" d="M419.06,373.24q9.88-17.42,20.91-17.42a13.17,13.17,0,0,1,6.89,1.55,3.93,3.93,0,0,1,2.06,3.41,12.92,12.92,0,0,1-3.25,8.66c-1.79,2.12-3.64,3.17-5.54,3.17a9.48,9.48,0,0,1-4.83-1.93,9,9,0,0,0-4.2-1.55q-3.59,0-7.57,4.72c-3,3.62-3.92,14-3.92,14V407q0,14.55,1.13,16.79a5,5,0,0,0,3.58,2.32q1.14.24,6.33.7,1.14,0,1.14,2c0,1.09-.38,1.64-1.14,1.64-1.51-.05-3.69-.1-6.5-.16q-8.76-.3-12.34-.3l-19.49.46c-.86,0-1.3-.54-1.3-1.64s.43-1.86,1.3-2a40,40,0,0,0,6.17-.83,3.88,3.88,0,0,0,2.68-2.16q1.63-3,1.62-16.79V383.51q0-9-1.29-13c-.71-2.32-2.38-3.48-5-3.48h-5.53c-.84.56-1.32,0-1.6-1.22v-.69c.17-.87.84-1.45,2.16-1.7a188,188,0,0,0,26-7.12c1.37,0,2.06.49,2.06,1.47Q419.06,370.75,419.06,373.24Z"/><path id="n" class="cls-8" d="M323.85,371.07Q332.8,356,349,356a25.74,25.74,0,0,1,14.74,4.49c6,4,8.84,18.18,8.84,18.18l.84,17.67v10.37q0,14.73,1.33,17.57a4.92,4.92,0,0,0,3.32,2.42,43,43,0,0,0,5.55.73c.88.16,1.33.81,1.33,1.94s-.44,1.87-1.33,1.87l-10.12-.33c-3.42-.1-6.2-.16-8.36-.16-2.43,0-5.83.06-10.2.16q-7.71.33-9.19.33c-1,0-1.33-.62-1.33-1.87s.44-1.94,1.33-1.94a28.34,28.34,0,0,0,5.79-.81,4.82,4.82,0,0,0,2.9-2.34q1.32-2.68,1.33-17.57v-21q0-9.49-2-13.7-3.5-8-11.84-8a15.48,15.48,0,0,0-8.85,3,20.47,20.47,0,0,0-5.82,6.16,24,24,0,0,0-3.43,12.77v21.28q0,14.78,1,16.79a4.89,4.89,0,0,0,3.49,2.32c.66.15,2.55.38,5.69.69,1,.11,1.46.73,1.46,1.86s-.49,1.78-1.46,1.78c-1.35,0-3.37-.1-6-.15q-8.19-.31-11.77-.31c-2.49,0-5.84.05-10.07.15-5.17.21-8.17.31-9.1.31-.75,0-1.13-.59-1.13-1.78s.38-1.7,1.13-1.86a35.1,35.1,0,0,0,6-.82,4.44,4.44,0,0,0,2.83-2.16q1.14-2.27,1.14-16.8v-23.5q0-10.46-1.14-13.31a4.67,4.67,0,0,0-4.54-3.33h0l-4.35.82h-.79a3.2,3.2,0,0,1-1.8-2.2V365a2.6,2.6,0,0,1,2.27-1.7,176,176,0,0,0,25.67-7c1.26,0,1.9.43,1.9,1.31Q323.86,362,323.85,371.07Z"/><path id="e" class="cls-9" d="M236.39,388.63a24.79,24.79,0,0,0-.7,5.75q0,15.48,8.79,24.63,6.57,6.81,14.42,6.81,8.22,0,13.7-3.1a31.44,31.44,0,0,0,8.91-8.4,1.85,1.85,0,0,1,1.59-.78,3.7,3.7,0,0,1,1.5.63c.84.67,1.27,1.21,1.27,1.64a5.1,5.1,0,0,1-.8,1.7q-5.93,8.91-13.78,12.54a37.87,37.87,0,0,1-16.24,3.17q-17.82,0-28.43-12.23-9-10.44-9-25.84,0-17.49,11.88-29A36,36,0,0,1,255.21,356q15.36,0,24.63,11.77,6.59,8.44,7,17.72a4.71,4.71,0,0,1-.79,2.7,3.24,3.24,0,0,1-2.46.78q-16.24-.46-31.21-.47Q243.84,388.48,236.39,388.63Zm.81-5.75q8.07.15,12,.16,8.73,0,18.39-.7c.95-.1,1.43-.93,1.43-2.46q-.48-8.36-4.05-13.7a11.17,11.17,0,0,0-9.74-5.49q-6.9,0-12,7.05a37.76,37.76,0,0,0-6,15.17Z"/><path id="H" class="cls-10" d="M112,373.62V412.1q0,8.4,1.36,10.92,1.38,2.28,5.12,3.06,1.71.32,8,.94c1,.11,1.45.73,1.45,1.89s-.54,2-1.61,2c-1.7-.05-4.39-.1-8-.16q-11.08-.3-16.16-.3-12,0-23.24.46c-.76,0-1.13-.6-1.13-1.81s.37-1.93,1.13-2a53.23,53.23,0,0,0,8-1.1,5.91,5.91,0,0,0,3.62-2.9c1.13-1.79,1.81-4.75,2-8.88q.15-2.83.15-12.89v-57q0-12.36-.4-15.58a13.83,13.83,0,0,0-1.77-5.58q-1-2.13-4.42-2.92a76.17,76.17,0,0,0-7.82-.94c-.85-.11-1.29-.79-1.29-2.05q0-2.28,1.29-2.28,1.77,0,12.88.4c4.62.16,8.28.23,11,.23q4.52,0,12.49-.32l10.54-.31c1.35,0,2,.76,2,2.28a1.79,1.79,0,0,1-1.53,2h-.08a73.94,73.94,0,0,0-8,1.1,6.87,6.87,0,0,0-3.94,2.76q-1.6,3.38-1.61,21.16v22.27q10.37.47,29,.46,18,0,28.19-.46v-23q0-12.75-.24-15.66a15.68,15.68,0,0,0-1.37-5.5,6.74,6.74,0,0,0-4.84-3q-1.28-.24-7.89-.84c-.85-.1-1.29-.78-1.29-2,0-1.52.48-2.28,1.45-2.28q1.77,0,13.05.39c4.67.16,8.42.24,11.28.24s6.84-.1,12.08-.32l10.63-.31c1.34,0,2,.7,2,2.12s-.62,2.1-1.85,2.2a51.52,51.52,0,0,0-8.5,1.3,5.36,5.36,0,0,0-2.86,2.56q-2.33,3.76-2.33,21.17V402q0,12.82.4,16.21a13.53,13.53,0,0,0,1.77,5.59,7.18,7.18,0,0,0,4.91,3.06,76.19,76.19,0,0,0,8,1c.75.1,1.13.78,1.13,2s-.49,1.81-1.46,1.81q-2.9-.08-8.21-.16-11.11-.3-15.79-.3-.56,0-23.43.46c-1,0-1.45-.6-1.45-1.81s.48-1.94,1.45-2a55.29,55.29,0,0,0,7.89-1.11,5.9,5.9,0,0,0,3.46-2.9q2-3.78,2-21.8V373.62q-10.22-.62-28.2-.62Q122.34,373,112,373.62Z"/></g><text class="cls-11" transform="translate(235.87 535.22) scale(1.02 1)">Since 2019</text><text class="cls-12" transform="translate(165.47 287.38) scale(1.02 1)">Relaxation salon</text><g id="The_Swedish_Massage" data-name="The Swedish Massage"><path id="T" class="cls-13" d="M124.88,223.15q3.45,1.88,6.25,3.17c.19.15.18.41,0,.82a3.66,3.66,0,0,1-.23.33.58.58,0,0,1-.56.3,11,11,0,0,0-6,.95A15.15,15.15,0,0,0,119,234a13.22,13.22,0,0,0-1.11,1.84,2.5,2.5,0,0,0-.19,1.57,3.29,3.29,0,0,0,1.39,1.75c.36.27,1.17.82,2.42,1.58l12.27,7.67q2.88,1.8,3.36,2a3.33,3.33,0,0,0,1.38.36,2.59,2.59,0,0,0,1.6-1c.22-.24.75-.9,1.61-2a.49.49,0,0,1,.65-.15l.05,0a.47.47,0,0,1,.2.64.44.44,0,0,1-.08.11q-2.09,2.87-4.41,6.56c-1.55,2.47-2.82,4.65-3.87,6.57a.44.44,0,0,1-.56.25.24.24,0,0,1-.11-.06.47.47,0,0,1-.26-.62l0-.07c.58-1.22.94-2,1-2.35a2,2,0,0,0,0-1.45,5.57,5.57,0,0,0-2.26-1.93l-2-1.19-12.48-7.32a35.16,35.16,0,0,0-3.37-1.81,2.69,2.69,0,0,0-1.43-.18c-.62.11-1.45,1-2.43,2.65a15.2,15.2,0,0,0-2.44,7.12,12.8,12.8,0,0,0,1.68,5.9.56.56,0,0,1,0,.63c-.06.11-.12.23-.19.34-.27.38-.51.52-.72.41a60.13,60.13,0,0,0-5.64-4.15c3.11-5.67,6.56-11.62,10.44-17.77S121.24,228.21,124.88,223.15Z"/><path id="h-2" data-name="h" class="cls-13" d="M144.18,221.26a10,10,0,0,1,2.73-8.87,12,12,0,0,1,4.42-3.28,4.85,4.85,0,0,1,5.5.82l3.25,3.12,2,1.82a13.19,13.19,0,0,0,3.32,2.56,1.49,1.49,0,0,0,1.18-.38c.17-.13.63-.52,1.4-1.19a.42.42,0,0,1,.59,0l0,0a.4.4,0,0,1,.08.56l-.08.08-2.28,2.25c-.77.77-1.39,1.4-1.84,1.89s-1.25,1.35-2.09,2.34c-1,1.17-1.6,1.89-1.79,2.1a.48.48,0,0,1-.68.1.43.43,0,0,1-.09-.6s0,0,.05-.05A16,16,0,0,0,161,223a1.22,1.22,0,0,0,.14-1,5.13,5.13,0,0,0-1.52-1.85L158.25,219l-4.08-3.56-.67-.59a5.17,5.17,0,0,0-2.22-1.25c-1.5-.34-3,.33-4.38,1.85a5.87,5.87,0,0,0-1.51,5.27,4.87,4.87,0,0,0,1.73,2.9l4.2,3.36a14.12,14.12,0,0,0,3.45,2.37,1.45,1.45,0,0,0,1.1-.43c.49-.43.95-.88,1.39-1.35.25-.24.47-.28.67-.12a.44.44,0,0,1,.11.63l-.07.08c-.09.09-.77.82-2.05,2.31l-1.68,1.94c-.46.51-1.21,1.5-2.05,2.63-1.05,1.39-1.63,2.23-1.8,2.47s-.39.23-.65,0a.4.4,0,0,1-.11-.56l0,0a18.64,18.64,0,0,0,1.05-1.71,1.27,1.27,0,0,0,.1-1,11.69,11.69,0,0,0-3.07-2.86l-14.29-10.9a15.84,15.84,0,0,0-2.71-1.78c-.6-.26-1.22,0-1.85.83l-.13.16-1,1.37c-.08.12-.14.18-.16.21-.16.21-.38.22-.66.07l-.19-.11c-.14-.09-.11-.33.09-.69,1.58-2.68,3.17-5.63,4.83-8.85.24-.3.46-.39.61-.26,2.42,2.05,4.9,4.29,7.4,6.29C141.5,219.13,142.39,219.84,144.18,221.26Z"/><path id="e-2" data-name="e" class="cls-13" d="M167.88,202.54a3.74,3.74,0,0,0,.84,1.19,7.78,7.78,0,0,0,6.4,2.46,7.52,7.52,0,0,0,4.61-1.85,11.08,11.08,0,0,0,2.8-3.44,9.55,9.55,0,0,0,.84-3.4.64.64,0,0,1,.27-.47,1,1,0,0,1,.47-.19.77.77,0,0,1,.58,0,.89.89,0,0,1,.08.48,10.56,10.56,0,0,1-1.36,5.17,15.39,15.39,0,0,1-3.36,4,14.19,14.19,0,0,1-8.82,4,8.58,8.58,0,0,1-9.24-7.84,8.35,8.35,0,0,1,.21-2.54,14,14,0,0,1,4.75-7.82,11.44,11.44,0,0,1,8.33-3.29,6.71,6.71,0,0,1,4.7,1.88.91.91,0,0,1,.23.68,1.2,1.2,0,0,1-.5.67c-2.81,2.22-5.45,4.44-8,6.66C170.38,200.15,168,201.88,167.88,202.54Zm-.84-1.21,3-2.69c1.45-1.31,2.94-2.71,4.5-4.2a.5.5,0,0,0,0-.72l-.06-.05a5.38,5.38,0,0,0-3.32-1.64,4.24,4.24,0,0,0-3.43,1.17,5.33,5.33,0,0,0-1.82,4,8,8,0,0,0,1.17,4.08Z"/><path id="S" class="cls-13" d="M209.38,150.44c.3.53,1.57,2.37,3.79,5.56.11.19,0,.39-.29.61l-.28.18a.53.53,0,0,1-.57,0c-4.2-2.47-8.3-2.58-12-.38a7.55,7.55,0,0,0-3.53,3.92,4.08,4.08,0,0,0,.46,3.78c1.07,1.64,3.74,1.9,8,1,1.23-.26,1.83-.37,3.06-.61,4.47-.82,7.57-.92,9.37-.46a6.61,6.61,0,0,1,4.2,3.49,7,7,0,0,1-.41,7.63c-1.41,2.28-3.79,4.37-7.17,6.4-2.7,1.64-7.2,4.31-9,4-1.29-.2-3.71-2.9-5.29-4.43a.74.74,0,0,1-.12-.13c-.15-.21-.08-.44.22-.71l.26-.19a.58.58,0,0,1,.64-.1,17.32,17.32,0,0,0,7.2,1.65,11.21,11.21,0,0,0,5.88-1.5,8.29,8.29,0,0,0,3.86-4.33,4.84,4.84,0,0,0-.37-4.24,4.75,4.75,0,0,0-3.79-2.29,23,23,0,0,0-6.3.48c-1.13.19-1.68.3-2.83.51-3.62.73-6.31,1-8,.56a6.58,6.58,0,0,1-4-2.83c-1.26-1.81-1.19-4,.28-6.57a17.74,17.74,0,0,1,6.5-6.11,31.27,31.27,0,0,1,5.26-2.41,21.19,21.19,0,0,0,2.87-1.3A17.13,17.13,0,0,0,209.38,150.44Z"/><path id="w" class="cls-13" d="M250.72,159.09c.06-.46.06-1.73.06-3.83s0-3.17.06-5.28a11.27,11.27,0,0,0-.22-3.28,1.49,1.49,0,0,0-.39-.59c-.45-.31-1.41-.26-2.88.16a.44.44,0,0,1-.56-.25v0c-.11-.31,0-.5.23-.59,2.41-.82,4-1.3,4.67-1.54.22-.07,1.69-.62,4.35-1.57.24-.08.4,0,.51.34a.42.42,0,0,1-.23.56h0a5.4,5.4,0,0,0-2.45,1.79,9.26,9.26,0,0,0-1.06,4.32c-.24,3.12-.33,4.69-.48,7.81-.12,2.8-.17,4.48-.21,5a26.31,26.31,0,0,1-2.4,1.93.46.46,0,0,1-.49-.14q-2.16-2.32-3.89-3.94c-1.46-1.36-2.2-2-3.7-3.38-.4-.37-.84-.82-1.27-1.28a4.7,4.7,0,0,0-1.46-.82v2.79a36.79,36.79,0,0,1,.84,5v5c-1.1.73-1.89,1.41-2.71,2.05a.49.49,0,0,1-.48-.08c-1.34-1.27-2.72-2.47-4.15-3.74-2.52-2.1-3.81-3.14-6.41-5.2a15.27,15.27,0,0,0-3.83-2.51,4.88,4.88,0,0,0-2.83.58c-.25.13-.45,0-.62-.26a.38.38,0,0,1,.12-.54l.1-.05c3.53-1.72,5.35-2.51,5.39-2.54.75-.36,1.68-.82,2.89-1.43,1.48-.73,2.36-1.14,2.61-1.25s.42,0,.55.28.1.46-.09.54c-1.48.77-2.21,1.32-2.22,1.64a1,1,0,0,0,.12.42A13.1,13.1,0,0,0,231,158c1.89,1.59,2.82,2.39,4.67,4,.3.26,1.09,1.05,2.35,2.36a14,14,0,0,0,0-1.83c0-.89,0-1.81,0-1.81v-4.49a7.47,7.47,0,0,0,0-2.77,5.09,5.09,0,0,0-2.7-1.88,5.42,5.42,0,0,0-2.77.59c-.23.1-.4,0-.53-.27s-.07-.5.18-.61l1.86-.77,3.5-1.38c.12,0,1.92-.82,5.44-2.29.27-.09.46,0,.58.3a.4.4,0,0,1-.14.55l-.1,0c-1.44.64-2.19,1.14-2.26,1.47a.76.76,0,0,0,.08.39,12.91,12.91,0,0,0,2.73,2.9l4.31,4.07C249.49,157.76,250.3,158.6,250.72,159.09Z"/><path id="e-3" data-name="e" class="cls-13" d="M266.38,146.93c-.13.17.06,1,.2,1.42a7.8,7.8,0,0,0,4.43,5.09,7.16,7.16,0,0,0,4.78.46,10.44,10.44,0,0,0,3.92-1.75,9.17,9.17,0,0,0,2.18-2.63.68.68,0,0,1,.45-.3,1.17,1.17,0,0,1,.49.05c.28.09.46.21.48.31a1,1,0,0,1-.15.47,10.41,10.41,0,0,1-3.41,4,14.9,14.9,0,0,1-4.62,2,13.23,13.23,0,0,1-9.32-.53,8.65,8.65,0,0,1-4.72-5.25,8.21,8.21,0,0,1,1.45-8,13.32,13.32,0,0,1,7.48-4.69,11.17,11.17,0,0,1,8.64.89,6.51,6.51,0,0,1,3.23,3.76.93.93,0,0,1-.1.71,1.18,1.18,0,0,1-.73.36q-5.1,1-9.76,2.26C269.5,146,266.7,146.46,266.38,146.93Zm-.17-1.6c1.68-.46,2.92-.78,3.74-1q2.71-.72,5.7-1.64c.29-.1.4-.34.29-.7a5.42,5.42,0,0,0-2.14-3,4.11,4.11,0,0,0-3.46-.52,5.13,5.13,0,0,0-3.37,2.7,7.89,7.89,0,0,0-.8,4.13Z"/><path id="d" class="cls-13" d="M302,133.05c-.39-2.75-.58-4.1-1-6.88a13.61,13.61,0,0,0-.7-3.28c-.26-.48-.84-.68-1.87-.55h-.22l-1.3.27-.38,0a.43.43,0,0,1-.52-.32.43.43,0,0,1,0,0v-.14c0-.23.17-.41.61-.54,3.54-1.06,6.52-2,8.91-2.89.44,0,.69.13.69.31.2,2.58.37,5.86.79,9.5.69,5.83,1,8.74,1.69,14.58.26,2.29.53,3.64.84,4a1.89,1.89,0,0,0,1.63.46l1.14-.07a.38.38,0,0,1,.47.28.31.31,0,0,1,0,.1.46.46,0,0,1-.36.54h0a61.54,61.54,0,0,0-7.62,1.53.44.44,0,0,1-.54-.29.5.5,0,0,1,0-.12c-.13-1.2-.19-2.12-.27-2.64a7.9,7.9,0,0,1-6,4c-3.53.56-6.43.09-8.77-1.47a9,9,0,0,1-3.81-5.82,8.35,8.35,0,0,1,2.08-7.9,13.35,13.35,0,0,1,8-3.82A9.92,9.92,0,0,1,302,133.05Zm-5.26.26a5.64,5.64,0,0,0-4.56,3.38,9.67,9.67,0,0,0-.42,5.87,8.59,8.59,0,0,0,3,5.51,5.71,5.71,0,0,0,4.49,1,5.86,5.86,0,0,0,3.95-2.68,3.43,3.43,0,0,0,.67-1.64,8.55,8.55,0,0,0-.1-1.6l-.71-5a7.66,7.66,0,0,0-.4-1.78,5.17,5.17,0,0,0-1.08-1.5A5.38,5.38,0,0,0,296.76,133.31Z"/><path id="i-2" data-name="i" class="cls-13" d="M317.65,136.75a13,13,0,0,0-.51-3.28c-.22-.5-.84-.75-1.61-1.27h-.42l-1.37.82h-.3a.52.52,0,0,1-.41-.45,1.43,1.43,0,0,1,0-.22c0-.2.16-.34.56-.42,2.89-.75,5.73-1.56,8.52-2.4.42,0,.64.1.65.37.07,2.46.06,4.86.19,6.93l.28,5.12c.14,2.36.32,3.79.58,4.16a1.52,1.52,0,0,0,1.1.49c.25,0,.84,0,1.78.05.24,0,.36.18.37.48s-.1.49-.32.49l-1.84,0c-1.69.05-2.93.09-3.67.13-.21,0-2.08.15-5.61.53a.43.43,0,0,1-.52-.33.17.17,0,0,1,0-.1c0-.33.1-.51.39-.54a15.07,15.07,0,0,0,1.78-.32,1.45,1.45,0,0,0,.79-.56,4.73,4.73,0,0,0,.22-2.5l-.13-1.7C317.9,140.13,317.8,139,317.65,136.75Zm1-17.69a4.28,4.28,0,0,1,2.74.74,2.18,2.18,0,0,1,1.12,1.68,2.34,2.34,0,0,1-1.17,2,4.26,4.26,0,0,1-2.32.87,4.45,4.45,0,0,1-2.8-.72,2.22,2.22,0,0,1-1.17-1.64,2.31,2.31,0,0,1,1.17-2,4.45,4.45,0,0,1,2.41-.88Z"/><path id="s-2" data-name="s" class="cls-13" d="M346.13,129.59c.08,2.14.26,3.78.29,4.71,0,.2-.21.33-.62.36h-.24a.69.69,0,0,1-.54-.31c-1.74-2.81-3.86-4.24-6.34-4.24-2.88,0-4.34.95-4.29,2.88,0,1.06,1.38,2,4.08,2.86l1.89.63a17.72,17.72,0,0,1,5.58,2.75,4.61,4.61,0,0,1,1.49,3.82,5,5,0,0,1-2.6,4.1,12.23,12.23,0,0,1-6.65,1.53c-2.54,0-6.31-.18-7.3-1.08-.61-.56-1.09-2.91-1.25-4.36,0-.2.16-.33.5-.37h.36a.46.46,0,0,1,.39.26,11.08,11.08,0,0,0,3.59,3.32,7.61,7.61,0,0,0,3.72,1.1,5,5,0,0,0,3.55-1.09,3.36,3.36,0,0,0,1-2.45,2.5,2.5,0,0,0-1.39-2.17,20.93,20.93,0,0,0-3.39-1.5l-1.81-.65a17.47,17.47,0,0,1-4.81-2.25,4.51,4.51,0,0,1-1.52-3.5,3.93,3.93,0,0,1,2.25-3.5,12.13,12.13,0,0,1,6.39-1.43,24.14,24.14,0,0,1,4,.46,16.39,16.39,0,0,0,1.84.19C344.83,129.62,345.44,129.62,346.13,129.59Z"/><path id="h-3" data-name="h" class="cls-13" d="M359.39,133.88a9.43,9.43,0,0,1,8.32-2.75,10.81,10.81,0,0,1,4.82,1.72,4.59,4.59,0,0,1,2.17,4.83c-.32,1.73-.49,2.59-.83,4.32l-.43,2.6a13.19,13.19,0,0,0-.32,4.06,1.34,1.34,0,0,0,.91.71c.18.07.74.21,1.66.44a.4.4,0,0,1,.3.49v0a.38.38,0,0,1-.38.38l-.12,0c-.07,0-1.05-.2-3-.54-1-.18-1.82-.31-2.44-.4s-1.71-.24-2.91-.36c-1.44-.15-2.31-.21-2.57-.23a.44.44,0,0,1-.42-.5.43.43,0,0,1,.45-.4h0a10.82,10.82,0,0,0,1.8,0,1.22,1.22,0,0,0,.84-.42,5.09,5.09,0,0,0,.68-2.24l.25-1.75.73-5.22.12-.86a5.17,5.17,0,0,0-.15-2.44c-.49-1.37-1.81-2.23-3.69-2.44a5.52,5.52,0,0,0-4.89,1.72,5.13,5.13,0,0,0-1.39,3c-.19,2.09-.3,3.12-.5,5.21a14,14,0,0,0-.1,4.06,1.29,1.29,0,0,0,.88.64c.32.09.9.21,1.75.35.32.07.46.22.44.47a.41.41,0,0,1-.4.43.33.33,0,0,1-.14,0l-2.83-.35c-1-.11-1.74-.19-2.35-.24S354,148,352.67,148c-1.59-.07-2.5-.08-2.79-.1s-.37-.18-.36-.49a.39.39,0,0,1,.4-.39h0a16.21,16.21,0,0,0,1.84-.1,1.21,1.21,0,0,0,.83-.48,12,12,0,0,0,.69-4.06c.52-7,.78-10.48,1.29-17.46a15.08,15.08,0,0,0,0-3.15c-.1-.62-.62-1-1.57-1h-2c-.23,0-.35-.19-.37-.49V120c0-.16.21-.26.59-.3,2.84-.21,5.93-.56,9.27-1,.36,0,.53.16.51.35-.39,3.07-.88,6.28-1.18,9.39C359.71,130.58,359.6,131.68,359.39,133.88Z"/><path id="M" class="cls-13" d="M439.27,139.1c1.17.51,3.06,1.31,5.65,2.46l6.18,2.66a.45.45,0,0,1,.28.57.34.34,0,0,1-.06.12.5.5,0,0,1-.63.29l-.06,0a23.15,23.15,0,0,0-2.69-.94,2.25,2.25,0,0,0-1.4.15c-.79.38-1.63,1.46-2.47,3.23l-.5,1.06c-2.33,5.22-3.5,7.83-5.88,13a30.19,30.19,0,0,0-1.46,3.65,3.83,3.83,0,0,0-.08,1.39,2,2,0,0,0,1,1.33c.28.19,1,.59,2,1.19a.49.49,0,0,1,0,.7.5.5,0,0,1-.48.12c-2.07-1-4.34-2.12-6.78-3.17s-4.52-1.87-6.57-2.61c-.25-.09-.31-.29-.17-.61a.42.42,0,0,1,.5-.3l0,0a23.87,23.87,0,0,0,2.34.65,2.16,2.16,0,0,0,1.36-.28,7.18,7.18,0,0,0,2-3.08c.27-.62.49-1.11.65-1.46,2.71-6.34,4.06-9.51,6.73-15.86l-.45-.18c-5.26,3.92-7.82,5.94-12.78,10.09-1.31,1.1-3,2.53-5,4.31C419,159,417.79,160,417,160.75a1,1,0,0,1-1.05.1,1.16,1.16,0,0,1-.84-.74c-.21-2.12-.69-5.51-1.59-10.17-1.22-6.63-1.94-9.95-3.58-16.59l-.64-.18c-2,6.57-3,9.86-5,16.42-.73,2.47-.91,4.11-.53,5.07.28.67,1.36,1.41,3.19,2.22.32.12.44.32.34.58a.48.48,0,0,1-.56.37l-.13,0c-1.81-.63-3.63-1.19-5.46-1.7s-3.75-1-5.64-1.36a.43.43,0,0,1-.38-.45.5.5,0,0,1,0-.13.48.48,0,0,1,.55-.38h0c1.76.21,3,.11,3.61-.34.91-.64,1.78-2.19,2.52-4.5,1.77-5.42,2.67-8.13,4.47-13.54.26-.76.46-1.35.58-1.79.46-1.54.5-2.64.15-3.29a3.08,3.08,0,0,0-1.68-1.21c-.15-.07-.95-.36-2.39-.82a.49.49,0,0,1-.36-.58s0,0,0-.06c.09-.33.28-.46.56-.39l6.21,1.77c2.79.76,4.91,1.38,6.38,1.8a41.87,41.87,0,0,0,.76,5c1.29,5.9,1.84,8.85,2.79,14.74q.4,2.56.71,5.31c.11-.1,1.39-1.31,3.93-3.57,4.26-3.82,6.43-5.69,10.93-9.36A50.08,50.08,0,0,0,439.27,139.1Z"/><path id="a" class="cls-13" d="M455.51,176.89a11.76,11.76,0,0,1-3.65,0,13,13,0,0,1-3.73-1.38c-2.08-1.1-3.37-2.35-3.91-3.81a3.29,3.29,0,0,1,.13-2.81,4.57,4.57,0,0,1,3.22-2.33,9.77,9.77,0,0,1,3.19.23c.48.08,1.69.38,3.76,1a16.64,16.64,0,0,0,4.31.74c.94,0,1.57-.24,1.85-.73l.57-.94c1.44-2.41,1.22-4.15-.68-5.2a5,5,0,0,0-2.89-.65,2.5,2.5,0,0,0-1.91,1.48,1.71,1.71,0,0,1-1.74.7,7.68,7.68,0,0,1-2.83-.93c-1.23-.62-1.68-1.3-1.26-2.05.53-1,2-1.49,4.46-1.39a17,17,0,0,1,7.39,2.27c3.12,1.73,4.85,3.44,5.19,5a4.89,4.89,0,0,1-1,3.48l-.32.51L461.14,177c-1.26,1.93-1.35,3.21-.27,3.86a3.81,3.81,0,0,0,1.41.55l.22.09a.53.53,0,0,1,.22.43.55.55,0,0,1,0,.31c-.05.08-.2.12-.42.1a8.9,8.9,0,0,1-4.21-1.46C456.23,179.76,455.35,178.46,455.51,176.89Zm4.06-7.27c-.64.21-2.17,0-4.55-.54-2.6-.58-4.41.07-5.38,1.82a3,3,0,0,0-.14,2.76,3.11,3.11,0,0,0,1.38,1.57,5.29,5.29,0,0,0,3.57.65,3,3,0,0,0,2.15-1.41Z"/><path id="s-3" data-name="s" class="cls-13" d="M488,178.34c-1.14,1.75-1.93,3.16-2.43,3.93-.1.15-.36.14-.72-.08l-.2-.12a.72.72,0,0,1-.27-.56c.19-3.19-.76-5.53-2.79-6.92-2.34-1.64-4.07-1.64-5.15-.08-.6.82,0,2.35,1.73,4.54.48.62.72.93,1.19,1.56a16.68,16.68,0,0,1,3,5.31,4.36,4.36,0,0,1-.93,3.87,5,5,0,0,1-4.49,1.8,12.42,12.42,0,0,1-6.31-2.46c-2.09-1.43-5-3.63-5.36-4.93-.19-.77.74-2.91,1.43-4.16.1-.16.32-.17.63,0l.3.18a.4.4,0,0,1,.18.41,10.46,10.46,0,0,0,1,4.63,7.53,7.53,0,0,0,2.43,2.94,5.06,5.06,0,0,0,3.53,1.1,3.25,3.25,0,0,0,2.23-1.38,2.35,2.35,0,0,0,.09-2.46,20.11,20.11,0,0,0-1.93-3.08l-1.12-1.54a16.49,16.49,0,0,1-2.65-4.43,4.27,4.27,0,0,1,.72-3.64,4,4,0,0,1,3.83-1.55,12.17,12.17,0,0,1,6.05,2.41,23.08,23.08,0,0,1,3,2.57,12.05,12.05,0,0,0,1.4,1.17C486.93,177.63,487.45,178,488,178.34Z"/><path id="s-4" data-name="s" class="cls-13" d="M506.16,193.06c-1.3,1.65-2.22,3-2.78,3.7-.12.15-.38.1-.71-.14a.9.9,0,0,1-.19-.15.68.68,0,0,1-.23-.58c.48-3.19-.27-5.63-2.17-7.23-2.21-1.85-3.94-2-5.16-.6-.67.82-.21,2.37,1.32,4.73l1.06,1.69a16.34,16.34,0,0,1,2.52,5.62,4.37,4.37,0,0,1-1.29,3.79,5,5,0,0,1-4.66,1.36,12.81,12.81,0,0,1-6.11-3.12c-2-1.64-4.76-4.11-4.94-5.45-.11-.83,1-2.85,1.82-4,.11-.15.34-.15.62,0l.3.21a.43.43,0,0,1,.14.43,10.35,10.35,0,0,0,.64,4.74,7.52,7.52,0,0,0,2.17,3.19,5.2,5.2,0,0,0,3.44,1.46,3.24,3.24,0,0,0,2.36-1.16,2.43,2.43,0,0,0,.32-2.46,20.86,20.86,0,0,0-1.69-3.29l-1-1.64a17.36,17.36,0,0,1-2.27-4.71,4.29,4.29,0,0,1,1.06-3.57,4,4,0,0,1,4-1.17,12.34,12.34,0,0,1,5.88,3,26.17,26.17,0,0,1,2.78,2.89,13.5,13.5,0,0,0,1.3,1.32A14.81,14.81,0,0,0,506.16,193.06Z"/><path id="a-2" data-name="a" class="cls-13" d="M509.24,219.26a12.37,12.37,0,0,1-3.56-1.15,14.39,14.39,0,0,1-3.26-2.53c-1.68-1.73-2.65-3.35-2.75-4.93a3.32,3.32,0,0,1,.93-2.69,4.49,4.49,0,0,1,3.82-1.27,10.83,10.83,0,0,1,3.06,1.22c.43.23,1.58.92,3.36,2.12a17.65,17.65,0,0,0,4,2.09,2.05,2.05,0,0,0,2-.12l.84-.74q3.13-2.85.84-5.3a5.24,5.24,0,0,0-2.63-1.55,2.58,2.58,0,0,0-2.31.82,1.71,1.71,0,0,1-1.89.13,7.85,7.85,0,0,1-2.52-1.78c-1-1-1.24-1.79-.65-2.4.84-.82,2.4-.82,4.76,0a17.9,17.9,0,0,1,6.59,4.55c2.52,2.67,3.77,4.92,3.66,6.56a4.81,4.81,0,0,1-2,3.09l-.45.4-6.39,5.33c-1.78,1.49-2.23,2.72-1.36,3.71a4.43,4.43,0,0,0,1.23,1,.65.65,0,0,1,.18.15.56.56,0,0,1,.1.5.57.57,0,0,1-.11.28c-.08.07-.23.06-.44,0a9.59,9.59,0,0,1-3.67-2.77C509.18,222.31,508.7,220.76,509.24,219.26Zm6-5.8c-.68,0-2.12-.71-4.3-2-2.39-1.38-4.34-1.32-5.78.08a3,3,0,0,0-.93,2.64,3.4,3.4,0,0,0,.91,2,5.53,5.53,0,0,0,3.32,1.76,3,3,0,0,0,2.52-.68C512.71,215.73,513.57,215,515.29,213.46Z"/><path id="g" class="cls-13" d="M519,233.6c-1.29-2.53-1.42-4.22-.32-5.1a2.74,2.74,0,0,1,2.81-.14,19.32,19.32,0,0,1,4,2.29c-2.17-4.16-2.24-7.09,0-8.87,1.41-1.16,3.29-1.31,5.64-.39a14.21,14.21,0,0,1,5.88,4.71,19.75,19.75,0,0,1,3,5.66c1.82,2.46,3.7,5,5.68,7.52.15.23.15.38,0,.48h-1.52a.55.55,0,0,1-.47-.22c-.74-1.21-1.85-2.91-3.37-5.08.2,2-.34,3.45-1.6,4.31a5.27,5.27,0,0,1-5.45.15,16.12,16.12,0,0,1-5.66-5c-.32-.41-.69-.92-1.1-1.54-1.76-1-3-1.19-3.64-.69s-.32,1.65,1,3.29,1.84,2.36,3,4c4.26,5.64,4.72,9.64,1.69,11.61a6,6,0,0,1-6,.23c-2.52-1.14-5.11-3.6-8-7.29a19.18,19.18,0,0,1-3.91-7.53c-.37-1.83-.1-3.13.84-3.92a3.42,3.42,0,0,1,3.24-.6A13.51,13.51,0,0,1,519,233.6Zm.59,1.25a9.4,9.4,0,0,0-1.26-.44,4.29,4.29,0,0,0-3.36.82,3.47,3.47,0,0,0-1.15,3.59,10.32,10.32,0,0,0,2.13,4.43,11.26,11.26,0,0,0,4.73,4,3.75,3.75,0,0,0,3.61-.29,2.43,2.43,0,0,0,1.21-2.42c-.12-1.22-1-2.91-2.52-5l-1.28-1.68c-.6-.83-1.3-1.8-2.11-3Zm16.81-8.15a4.59,4.59,0,0,0-3.59-2,5.89,5.89,0,0,0-5.53,4.68,4.6,4.6,0,0,0,1.06,3.33,4.47,4.47,0,0,0,3.37,1.92,5.56,5.56,0,0,0,3.49-1.16,4.87,4.87,0,0,0,2.22-3.38,4.48,4.48,0,0,0-1-3.38Z"/><path id="e-4" data-name="e" class="cls-13" d="M544.77,251.29c-.21-.09-1,.28-1.37.52a7.4,7.4,0,0,0-3.75,5.75,8.23,8.23,0,0,0,1,5.13,13.12,13.12,0,0,0,3,3.78,10.82,10.82,0,0,0,3.36,1.77.84.84,0,0,1,.44.41,1.31,1.31,0,0,1,.1.55c0,.32-.06.53-.15.57a1.15,1.15,0,0,1-.52-.06,12.45,12.45,0,0,1-5-2.79,18.78,18.78,0,0,1-3.51-4.44c-2-3.52-2.85-6.75-2.41-9.85a8.16,8.16,0,0,1,3.83-6.06c2.47-1.57,5.32-1.72,8.49-.29a15.92,15.92,0,0,1,7.1,6.79c1.9,3.28,2.52,6.46,1.83,9.37a6.2,6.2,0,0,1-2.79,4.27.93.93,0,0,1-.75.05,1.6,1.6,0,0,1-.59-.7q-2.64-5.28-5.37-9.85C546.71,254.39,545.45,251.56,544.77,251.29Zm1.38-.5c1,1.65,1.68,2.89,2.2,3.7,1.06,1.79,2.22,3.68,3.46,5.66a.53.53,0,0,0,.72.21l.08-.05a5.08,5.08,0,0,0,2.32-2.91,4.66,4.66,0,0,0-.57-3.78,6.09,6.09,0,0,0-3.78-2.9A8.23,8.23,0,0,0,546.15,250.79Z"/></g><g id="手のイメージ"><g id="下側の手" class="cls-14"><path class="cls-15" d="M180.2,661.19C215,664.7,256.06,656.06,293,640.05c14.53-6.27,30.06-15,33.45-23.46,2.46-6.13-2.47-10.49-10.16-12.27s-17.82-1.41-27.9-.82c-89.9,5.81-193.81,24-287-.51,24.41,36.46,63.5,69.22,109.37,86,45.86,17.54,98.51,19.08,150,10.78,46.85-6.44,106.75-33.1,165.59-53.37,58.89-20.91,116.8-35.45,159.71-31.84,11.66-.93,59.08-3.76,60.3-8.21,1.29-6.18-11.86-18.07-23.87-26.06-30.82-22.79-87.09-26.72-143.89-14-56.79,11.41-114.12,39.5-147.22,49.87"/><path class="cls-16" d="M180.2,662.63c32.71,3.17,66.17-3.55,96.75-14.67,14.73-5.36,30.41-11.41,42.68-21.25,3.84-3.09,8.62-7.56,8.67-12.83.05-5.07-4.55-8.21-9-9.76-7.35-2.57-15.77-2.3-23.45-2-8.35.29-16.7,1-25,1.64-16.53,1.29-33.06,2.84-49.59,4.32-34.61,3.12-69.28,6-104.06,6.36-38.84.35-77.9-2.58-115.53-12.41a1.28,1.28,0,0,0-1.55.89,1.25,1.25,0,0,0,.12.91,231.41,231.41,0,0,0,72.29,68.4c31.46,19,67.34,29.66,104.07,32.79a341.55,341.55,0,0,0,111.93-9.37c37.77-9.63,74-24.55,110.43-38,38.38-14.12,77.26-27.67,117.48-35.85,17.47-3.56,35.25-6.15,53.12-6.41,6.37-.09,12.83.82,19.16.34,4.81-.35,9.61-.7,14.42-1.08,11.47-.9,23.05-1.75,34.37-3.79,2.81-.5,6.73-.89,9.07-2.72,3.11-2.46-.36-7.76-2-10-4.57-6.2-10.84-11.25-17.07-15.78a114.42,114.42,0,0,0-18.7-11.44c-14.19-6.62-29.79-10-45.39-11.67-38.13-4-76.91,2.62-113.47,13-34.53,9.85-67.38,24-100.87,36.59-6,2.25-12,4.43-18.06,6.35a1.23,1.23,0,0,0,.67,2.37C345,613.39,358,608.09,371,603c16.47-6.5,32.95-13,49.67-18.79,35.85-12.46,73.5-22.17,111.71-23.46,17.09-.57,34.36.48,51,4.3a114.89,114.89,0,0,1,40.21,17.64c6.78,4.67,13.83,10.08,18.75,16.72,1,1.32,3.78,5.1,2.83,6.72-.4.69-2.31,1-3,1.24-9.74,2.78-20.4,3.29-30.45,4.16s-20.13,2.22-30.09,1.64c-15.65-.82-31.37.54-46.83,2.87-38.66,5.85-76.06,17.89-112.83,30.73s-72.71,27.72-109.83,39.47A364.5,364.5,0,0,1,206,703.53c-37.59.41-75.12-5.94-109.34-21.48a229.85,229.85,0,0,1-79.74-60.4A215.36,215.36,0,0,1,2.44,602.56L1,604.36c63.44,16.6,130,13.75,194.85,8.37,31.65-2.62,63.28-6.29,95-8,7.29-.38,43.55-2.06,33.17,13.81-3.76,5.75-10.46,9.73-16.35,13.07A187,187,0,0,1,285,642.23c-32.83,13.14-69.25,21.4-104.85,17.93-1.62-.15-1.61,2.31,0,2.47Z"/></g><g id="上側の手" class="cls-14"><path class="cls-17" d="M467.65,44.72c-34.84-3.51-75.87,5.09-112.76,21.14-14.53,6.26-30.06,15-33.45,23.46-2.45,6.12,2.47,10.48,10.17,12.31s17.82,1.41,27.89.82c89.94-5.81,193.81-24,287,.52C622.09,66.47,583,33.71,537.13,17c-45.86-17.56-98.5-19.12-150-10.81C340.23,12.6,280.33,39.27,221.49,59.54,162.6,80.45,104.65,95,61.78,91.38c-11.66.93-59.08,3.77-60.3,8.21-1.29,6.18,11.86,18.06,23.87,26.05,30.9,22.72,87.14,26.66,143.93,13.9,56.79-11.4,114.14-39.5,147.24-49.86"/><path class="cls-18" d="M467.65,43.48C435,40.31,401.48,47,370.9,58.16c-14.73,5.35-30.4,11.41-42.67,21.25-3.85,3.08-8.63,7.55-8.69,12.82-.05,5.08,4.56,8.21,9,9.76,7.36,2.57,15.77,2.3,23.45,2,8.36-.28,16.7-1,25-1.64,16.54-1.29,33.06-2.84,49.59-4.33,34.61-3.12,69.29-6,104.06-6.35,38.84-.36,77.91,2.57,115.53,12.41a1.29,1.29,0,0,0,1.55-.92,1.25,1.25,0,0,0-.12-.89A231.27,231.27,0,0,0,575.32,33.9C543.85,15,508,4.26,471.23,1.14A341.28,341.28,0,0,0,359.3,10.51c-37.76,9.62-74,24.54-110.42,38C210.5,62.57,171.62,76.09,131.39,84.3c-17.47,3.56-35.25,6.13-53.12,6.4-6.37.09-12.82-.82-19.15-.33-4.81.35-9.62.69-14.43,1.07-11.46.9-23,1.75-34.37,3.79-2.8.5-6.72.89-9.07,2.72-3.12,2.46.36,7.76,2,10,4.56,6.19,10.84,11.24,17.06,15.77a114.53,114.53,0,0,0,18.7,11.46c14.2,6.63,29.79,10,45.39,11.68,38.13,4,76.92-2.62,113.48-13,34.52-9.85,67.38-23.94,100.87-36.58,6-2.26,12-4.43,18.06-6.35a1.24,1.24,0,0,0-.68-2.38c-13.35,4.22-26.33,9.5-39.33,14.64-16.46,6.5-32.94,13-49.67,18.78-35.85,12.47-73.5,22.17-111.7,23.47-17.09.57-34.37-.49-51-4.31a114.62,114.62,0,0,1-40.2-17.66c-6.79-4.68-13.85-10.09-18.76-16.73-1-1.31-3.79-5.1-2.83-6.72.4-.69,2.31-1,3-1.24C15.4,96,26.06,95.49,36.11,94.62S56.23,92.4,66.2,93c15.64.82,31.37-.53,46.82-2.87,38.71-5.84,76.06-17.89,112.83-30.73s72.71-27.72,109.83-39.47A364.61,364.61,0,0,1,441.86,2.58C479.44,2.17,517,8.53,551.2,24.06A230.13,230.13,0,0,1,631,84.46a216.29,216.29,0,0,1,14.47,19.14l1.42-1.82C583.4,85.2,516.8,88,452,93.41c-31.65,2.63-63.28,6.29-95,8-7.29.38-43.55,2.06-33.17-13.81,3.76-5.75,10.46-9.72,16.36-13.06a187.61,187.61,0,0,1,22.62-10.58C395.61,50.77,432.07,42.56,467.68,46c1.61.16,1.6-2.31,0-2.46Z"/></g></g></g></g></g></svg>