<svg xmlns="http://www.w3.org/2000/svg" viewBox="0 0 836.5 908"><defs><style>.cls-1{opacity:0.98;}.cls-2,.cls-4,.cls-5,.cls-6{fill:#fff;}.cls-3{fill:#006837;}.cls-4,.cls-5,.cls-6{stroke:#006837;stroke-miterlimit:10;stroke-width:3px;}.cls-5{font-size:51.43px;}.cls-5,.cls-6{font-family:YuMincho-Demibold, Yu Mincho;font-weight:300;}.cls-6{font-size:57.86px;}.cls-7{opacity:0.89;}</style></defs><g id="レイヤー_2" data-name="レイヤー 2"><g id="レイヤー_8" data-name="レイヤー 8"><g id="レイヤー_9" data-name="レイヤー 9"><g id="ヘッダーロゴw100_h109" data-name="ヘッダーロゴw100*h109"><g id="ロゴ背景_枠線" data-name="ロゴ背景＆枠線" class="cls-1"><g id="背景"><path class="cls-2" d="M432,814.91c-95,0-184.37-36.15-251.55-101.78A345.92,345.92,0,0,1,104.2,602.68a341.09,341.09,0,0,1,0-270.45,345.93,345.93,0,0,1,76.23-110.44C247.63,156.15,337,120,432,120h0c95,0,184.36,36.15,251.55,101.78a345.94,345.94,0,0,1,76.22,110.45,340.57,340.57,0,0,1,.88,268.18,345.35,345.35,0,0,1-77.11,112.72,352.32,352.32,0,0,1-114.9,75.32,358.76,358.76,0,0,1-135.68,26.46Z"/><path class="cls-3" d="M432,121.5a359.17,359.17,0,0,1,137.9,27.2,353.66,353.66,0,0,1,112.6,74.16,344.62,344.62,0,0,1,75.9,110,339.12,339.12,0,0,1,.87,267,343.77,343.77,0,0,1-76.78,112.24,350.84,350.84,0,0,1-114.41,75,357.49,357.49,0,0,1-135.12,26.35h-1a359.21,359.21,0,0,1-137.9-27.2,353.66,353.66,0,0,1-112.6-74.16,344.62,344.62,0,0,1-75.9-110,339.64,339.64,0,0,1,0-269.27,344.34,344.34,0,0,1,75.9-110,353.69,353.69,0,0,1,112.6-74.15A359.17,359.17,0,0,1,432,121.5m0-3c-197.29,0-357.23,156.23-357.23,349s159.93,349,357.22,349h1c94.44,0,185-36.78,251.63-102.21,67-65.44,104.63-154.2,104.63-246.74,0-192.72-159.93-349-357.22-349Z"/></g><path id="枠線内側" class="cls-4" d="M432,123.78c193.68.26,350.46,153.84,350.2,343S624.69,809.15,431,808.89,80.55,655.05,80.82,465.87C81,328.36,165.36,204.29,295,150.78a356.71,356.71,0,0,1,136.93-27m0-10.56c-200.27,0-362.63,158.6-362.63,354.23S231.7,821.69,432,821.69,794.6,663.09,794.6,467.45,632.25,113.22,432,113.22Z"/><path id="枠線外" class="cls-4" d="M432,113.22c200.28,0,362.63,158.6,362.63,354.23S632.25,821.69,432,821.69,69.34,663.09,69.34,467.45,231.7,113.22,432,113.22m0-17.94c-209.82.25-379.7,166.6-379.45,371.56S223.08,837.75,432.9,837.5,812.6,670.9,812.35,465.94c-.19-149-91.57-283.43-232.06-341.41A386.34,386.34,0,0,0,432,95.28Z"/></g><g id="Henrik"><g id="k"><path class="cls-2" d="M645.7,552.93c-.37,0-.48,0-.48-.8s.14-.85.51-.89a48.8,48.8,0,0,0,7.79-1.08,6.51,6.51,0,0,0,4.43-3.65c.66-1.43,1.56-5.28,1.56-21.81V432.31c0-8.84-.42-14.63-1.28-17.71a7.45,7.45,0,0,0-7.22-5.4,4.87,4.87,0,0,0-.54,0h-5.56c-.22-.08-.44-.27-.51-1.16l0-.11a8.46,8.46,0,0,1-.08-.88s.19-.25,1.16-.46c8.92-1.44,20.29-4.42,33.72-8.82a2.16,2.16,0,0,1,.72.11c-.45,11.05-.78,21.14-1.07,30-.23,7.16-.45,13.92-.7,19.84V507l2.38-1.73a121.36,121.36,0,0,0,11.76-10.48l10.84-11.07c7.86-8.15,8.77-11.44,8.77-13.2a5.48,5.48,0,0,0-.26-1.74c-.8-2.41-4.08-3.61-10.64-3.92h-.05a2.76,2.76,0,0,1-.15-1.08,2.21,2.21,0,0,1,.1-.78c4.54.12,11.56.19,20.92.19,1.37,0,7.67-.2,19.24-.6a2.44,2.44,0,0,1,.14,1,3.66,3.66,0,0,1-.13,1.1c-3.56.35-7.94,1.72-13.39,4.19-4.56,2.13-10.31,6.4-17.11,12.71l-9.36,8.55a48.75,48.75,0,0,1-3.91,3.63l-1.08.89.81,1.13c11.91,16.73,22.52,31,31.52,42.45,4.43,5.36,7.46,8.56,9.29,9.81s5.42,2.06,10.59,2.55c.07,0,.27,0,.27.89s-.18.8-.54.8l-16.65-.59h-.17c-7.13,0-12.47,0-15.94.16-1.48-2.53-3.29-5.48-5.38-8.78-12.88-18.55-21.32-30.58-25.15-35.8L684,506l-5.82,4.47v14c0,16.31.89,20.35,1.56,22a7,7,0,0,0,5.27,3.88,62.4,62.4,0,0,0,7.42.92c.24,0,.43,0,.43.88a1.37,1.37,0,0,1-.14.77h0a.66.66,0,0,1-.17,0c-7.9-.4-15.34-.6-22.11-.6H670C661.52,552.33,653.34,552.53,645.7,552.93Z"/><path class="cls-3" d="M678.33,399.64c-.41,10.36-.72,19.84-1,28.25-.23,7.15-.45,13.91-.7,19.81v76.78c0,16.39.9,20.66,1.68,22.54l0,.09,0,.09a8.41,8.41,0,0,0,3.82,3.82c-4.13-.12-8.09-.19-11.85-.19H670c-4.94,0-9.79.07-14.49.21a8,8,0,0,0,3.81-3.89c.84-1.84,1.7-6,1.7-22.45V432.31c0-9-.43-14.9-1.33-18.1A9,9,0,0,0,651,407.7a5.72,5.72,0,0,0-.59,0h-2.56a240.74,240.74,0,0,0,30.47-8.08m57.19,64.58a63.7,63.7,0,0,0-8.51,3.24c-4.75,2.22-10.47,6.45-17.46,12.94L700.18,489l-.07.07-.07.07c-.79.81-1.61,1.61-2.47,2.37l6.63-6.77c8.14-8.44,9.18-12,9.18-14.2a7.09,7.09,0,0,0-.34-2.26,6.17,6.17,0,0,0-4-3.67q5.41.06,12.81.06c1.15,0,5.66-.14,13.72-.41m-41.09,30.46,1.36,1.91c11.93,16.75,22.55,31.05,31.56,42.51l0,0,0,0c6,7.24,8.33,9.21,9.57,10.06l0,0,.06,0a11.64,11.64,0,0,0,2.42,1.12l-8-.28h-.1c-6.6,0-11.7,0-15.22.14-1.41-2.38-3.07-5.08-5-8l0-.06,0,0c-12.84-18.51-21.3-30.54-25.13-35.78l-1.66-2.26c2.45-2.07,5.3-4.75,8.91-8.24l0,0,0,0,1.06-1.08M679,396.28q-20.28,6.68-33.81,8.86c-1.57.34-2.34.94-2.34,2a9.32,9.32,0,0,0,.1,1.05c.13,1.53.75,2.29,1.83,2.53h5.79a4.1,4.1,0,0,1,.49,0,5.94,5.94,0,0,1,5.77,4.3q1.23,4.38,1.23,17.31V524.7q0,18.12-1.43,21.21a4.94,4.94,0,0,1-3.39,2.78,47.85,47.85,0,0,1-7.62,1.06c-1.23.14-1.85.85-1.85,2.38s.68,2.3,2,2.3q11.51-.6,24.22-.6h.37q10.2,0,22.11.6c1.23,0,1.84-.84,1.84-2.3s-.61-2.24-1.84-2.38a59.32,59.32,0,0,1-7.28-.9,5.51,5.51,0,0,1-4.11-3q-1.46-3.5-1.45-21.39v-13.3l4-3.09q5.76,7.86,25.09,35.72,3.45,5.45,5.8,9.5,5.18-.18,16.91-.19l16.7.6c1.36,0,2-.84,2-2.3s-.55-2.24-1.63-2.38q-7.34-.7-9.88-2.29-2.53-1.74-9-9.51Q716.17,520,698.23,494.85a46,46,0,0,0,4-3.67l9.37-8.56q10.08-9.35,16.71-12.44c5.27-2.39,9.57-3.75,13-4.08,1,0,1.43-.93,1.43-2.58s-.55-2.5-1.63-2.5q-17.22.62-19.25.61-14.16,0-20.89-.2c-1.09,0-1.63.76-1.63,2.29,0,1.72.55,2.58,1.63,2.58q8.46.4,9.28,2.89a4,4,0,0,1,.19,1.28q0,3.5-8.34,12.15l-10.81,11A122.5,122.5,0,0,1,679.63,504V447.83c.54-13.2,1-29.85,1.77-49.95,0-1.06-.82-1.6-2.45-1.6Z"/></g><g id="i"><path class="cls-2" d="M588.14,552.28c-.29,0-.49,0-.49-1a1.9,1.9,0,0,1,.2-1.08H588a50.85,50.85,0,0,0,7.85-.91l.11,0a7.38,7.38,0,0,0,4.34-3.25c1.32-2.12,2-6.61,1.94-13.72v-37l0-1.06c0-8.47-.36-14.21-1.12-17.55l0-.12A6.94,6.94,0,0,0,594,471.5h-2.2l-5.41,1.06H586a2.94,2.94,0,0,1-.59-1.72c0-.43-.09-.77-.1-1.12h0a2.59,2.59,0,0,1,1.11-.36c11.41-2.55,22.75-5.68,33.79-9.32.71,0,.71.22.71.61-.4,9.74-.65,18.68-.9,27.33-.08,3-.16,5.9-.24,8.73v26.71c.37,13.85.89,20.12,1.88,22.39l0,.11.06.09a7.5,7.5,0,0,0,5.54,3.48c1.12.2,3.61.43,7.43.69a4.09,4.09,0,0,1,0,2.08c-1.7-.06-4.21-.12-7.51-.19-7.09-.26-12.28-.39-15.41-.39C610.9,551.69,602.93,551.89,588.14,552.28Zm21.7-124.49a12.62,12.62,0,0,1-9.26-4.26l-.09-.1a11,11,0,0,1-.14-15.77,11.29,11.29,0,0,1,1.1-1l.06-.05,0,0a12.18,12.18,0,0,1,8.29-3.28,11.86,11.86,0,0,1,8.83,4.15l.09.1a11.39,11.39,0,0,1,3.43,8c0,3.28-1.44,6.17-4.4,8.81A11.64,11.64,0,0,1,609.84,427.79Z"/><path class="cls-3" d="M609.82,404.82a10.4,10.4,0,0,1,7.72,3.62l.09.1.09.1a9.87,9.87,0,0,1,3,6.92c0,2.85-1.28,5.37-3.9,7.71l-.06.05,0,.06a10.07,10.07,0,0,1-6.86,2.91,11.12,11.12,0,0,1-8.12-3.75l-.09-.1-.09-.09a9.54,9.54,0,0,1,.83-14.46l.12-.09.11-.1a10.61,10.61,0,0,1,7.23-2.88m9.54,57.08c-.38,9.3-.61,17.84-.85,26.11q-.12,4.46-.24,8.66v26.84c.42,16.22,1.08,20.79,2,22.91l.09.21.12.19A9,9,0,0,0,625,550.5c-6-.21-10.41-.31-13.2-.31-.72,0-5.64.12-15,.36a8.82,8.82,0,0,0,4.7-3.74c.94-1.52,2.19-4.67,2.17-14.52v-36l0,0v-2c0-8.58-.37-14.43-1.15-17.88l0-.12,0-.12A8.44,8.44,0,0,0,594,470h-2.35l-.28.06-4.47.87c0-.05,0-.1,0-.15,10.91-2.44,21.82-5.43,32.45-8.89m-9.52-60.08a13.74,13.74,0,0,0-9.31,3.69,14.22,14.22,0,0,0-1.24,1.09,12.45,12.45,0,0,0,.16,17.91,14.07,14.07,0,0,0,10.39,4.78,13.16,13.16,0,0,0,9-3.78q4.89-4.38,4.9-9.95a13,13,0,0,0-3.87-9.06,13.37,13.37,0,0,0-10-4.68ZM620,458.54q-16.66,5.5-33.82,9.35c-1.57.27-2.35.9-2.35,1.9a11.69,11.69,0,0,0,.11,1.19,4.33,4.33,0,0,0,1.43,3.09h1.22L592,473H594a5.41,5.41,0,0,1,5.68,4q1.08,4.8,1.08,17.22l0,0v38q0,10.15-1.72,12.94a5.87,5.87,0,0,1-3.46,2.58,49.2,49.2,0,0,1-7.56.89c-1.23,0-1.84.93-1.84,2.59s.68,2.49,2,2.49q22.3-.59,23.64-.59,4.68,0,15.38.39,5.19.1,7.74.2c.95,0,1.42-1,1.42-2.49s-.47-2.45-1.42-2.59c-3.94-.26-6.42-.5-7.44-.69a6.05,6.05,0,0,1-4.48-2.78c-1-2.2-1.43-9.46-1.75-21.8V496.76c.32-10.81.59-22.84,1.14-36.1,0-1.42-.82-2.12-2.44-2.12Z"/></g><g id="r"><path class="cls-2" d="M506.17,552h-.09a4.9,4.9,0,0,1-.05-.61c0-.44.07-1,.38-1.09a53,53,0,0,0,8-1.08,6.59,6.59,0,0,0,4.48-3.59c1-1.84,2.24-6.19,2.23-22.26V493.15c0-7.92-.56-13.54-1.73-17.18s-3.82-5.51-7.88-5.51H504c0-.08-.05-.17-.08-.27v-.54c.07-.25.33-.65,1.55-.88a243.14,243.14,0,0,0,33.37-9.12,1.58,1.58,0,0,1,.88.2h0a.55.55,0,0,1,0,.18c-.4,11-.61,17.74-.61,19.89v5.68l2.8-4.93C550,466.32,558.65,459,567.47,459l.85,0a15.45,15.45,0,0,1,7.3,1.84,3.56,3.56,0,0,1,1.86,3.07,15.12,15.12,0,0,1-3.81,10.14c-2,2.37-4,3.56-6,3.56-.91,0-2.59-.39-5.4-2.23a13,13,0,0,0-6.07-2.24h-.15c-3.51,0-7.17,2.22-10.88,6.6-4.13,5-5.34,18.28-5.39,18.85V523.3c0,17.09.93,20.9,1.63,22.27l.05.09a7.77,7.77,0,0,0,5.63,3.69c1.07.21,3.77.51,8.23.91a3.52,3.52,0,0,1,.13,1.09,2.4,2.4,0,0,1-.06.61c-1.95-.06-4.7-.12-8.23-.2-7.47-.25-12.83-.39-15.91-.39Z"/><path class="cls-3" d="M568.32,460.52a13.94,13.94,0,0,1,6.57,1.64,2.05,2.05,0,0,1,1.09,1.78,13.61,13.61,0,0,1-3.43,9.13l0,0,0,0c-1.69,2-3.32,3-4.83,3-.47,0-1.83-.19-4.54-2a14.57,14.57,0,0,0-6.78-2.49h-.3c-3.3,0-6.54,1.56-9.84,4.78,6.93-10.56,14.06-15.9,21.25-15.9h.15l.7,0m-30.18,1c-.38,10.33-.56,16.38-.56,18.46v11.36l3-5.37a70.33,70.33,0,0,0-2.34,12.56V523.3c0,17.12.9,21.21,1.79,23l0,.09,0,.09a9.14,9.14,0,0,0,4.32,3.74c-6.1-.2-10.54-.3-13.24-.3h-.07l-15.12.36a8,8,0,0,0,4.21-4c1.13-2.16,2.4-6.8,2.39-22.92V493.15c0-8.08-.59-13.84-1.79-17.59-1.26-4.17-4.46-6.5-9-6.6a243,243,0,0,0,26.31-7.49m30.18-4-.85,0q-14.18,0-26.89,22.39,0-3.19.61-19.89c0-1.25-.88-1.89-2.64-1.89a240.62,240.62,0,0,1-33.41,9.16c-1.7.32-2.55,1.06-2.77,2.18v.89c.26,1.13.67,1.85,1.31,1.85a1.4,1.4,0,0,0,.74-.27h7.14q5.09,0,6.44,4.47,1.66,5.19,1.66,16.72v30.18q0,17.7-2.08,21.59a5,5,0,0,1-3.44,2.79,51.7,51.7,0,0,1-7.94,1.06c-1.12.2-1.67,1.17-1.67,2.58s.56,2.12,1.67,2.12l25.05-.6q4.61,0,15.88.39c3.61.08,6.41.14,8.36.21,1,0,1.46-.71,1.46-2.12,0-1.72-.49-2.58-1.46-2.58-4.46-.4-7.17-.7-8.15-.9a6.33,6.33,0,0,1-4.6-3q-1.46-2.88-1.46-21.59V498.74s1.18-13.37,5.05-18q5.13-6.08,9.73-6.07a11.55,11.55,0,0,1,5.4,2c2.52,1.66,4.59,2.48,6.22,2.48,2.44,0,4.82-1.35,7.12-4.07A16.66,16.66,0,0,0,579,463.92a5,5,0,0,0-2.65-4.38,16.86,16.86,0,0,0-8-2Z"/></g><g id="n"><path class="cls-2" d="M482,552.57c-4.39-.13-8-.2-10.8-.2-3.13,0-7.55.07-13.14.2-6.16.27-10.45.42-11.8.42h-.11a2.93,2.93,0,0,1-.09-.89,1.87,1.87,0,0,1,.17-1,35.78,35.78,0,0,0,7.85-1.06,7.81,7.81,0,0,0,4.69-3.76c.82-1.66,1.88-5.83,1.89-23.3V496c0-8.44-.89-14.42-2.72-18.27-3.23-7.39-8.81-11.16-16.58-11.17a21.25,21.25,0,0,0-12.27,4.09,27.55,27.55,0,0,0-7.88,8.35,32.38,32.38,0,0,0-4.63,17.23v27.33c0,17.15.75,20.9,1.41,22.25l0,.11a7.74,7.74,0,0,0,5.5,3.69c.61.14,2.11.38,7.45.91.33,0,.52.06.52.9,0,.58-.14.75-.15.76h0a.55.55,0,0,1-.22,0c-1.7-.07-4.29-.13-7.73-.2-7-.26-12.09-.39-15.17-.39s-7.54.06-13,.19c-6,.24-10.15.39-11.55.4a3.39,3.39,0,0,1-.08-.79,1.79,1.79,0,0,1,.13-.88l.05,0a48.26,48.26,0,0,0,7.86-1.08,7.28,7.28,0,0,0,4.64-3.54c.72-1.42,1.65-5.23,1.65-22.31V493.35c0-9.23-.52-15-1.57-17.67-1.33-3.37-3.82-5.18-7.2-5.22H389l-5.61,1.06h-.51a2.56,2.56,0,0,1-1.18-1.58v-.37c.18-.38.55-.76,1.71-1a231.47,231.47,0,0,0,33-8.92,1.58,1.58,0,0,1,.74.15c-.33,3.7-.48,9.57-.49,17.35v5.47l2.8-4.71c7.45-12.55,17.59-18.66,31-18.67h.21a31.57,31.57,0,0,1,17.89,5.51c6.8,4.53,10.41,20.85,10.73,22.33l1.08,22.61V523c0,17.28,1.06,21.53,1.85,23.23a7.85,7.85,0,0,0,5.33,4,57.24,57.24,0,0,0,7.23,1c.21,0,.41.18.41,1a1.86,1.86,0,0,1-.16.9Z"/><path class="cls-3" d="M450.64,460.74A30.14,30.14,0,0,1,467.72,466c5.35,3.57,9,16.34,10,21.26l1.06,22.42V523c0,17.38,1.07,21.88,2,23.86l.05.09,0,.08a9.18,9.18,0,0,0,4.89,4.21l-3.77-.12c-4.41-.13-8.06-.2-10.85-.2-3.14,0-7.57.07-13.18.2h-.06l-2.67.11a9.23,9.23,0,0,0,4.8-4.22l0-.05,0,0c.93-1.89,2-6.32,2-23.91V496c0-8.64-.93-14.81-2.84-18.86-3.47-7.9-9.68-12.07-18-12.08h-.06a22.71,22.71,0,0,0-13.06,4.36l-1,.68c6.24-6.26,13.89-9.33,23.18-9.34h.19m-35.16.82c-.21,3.78-.32,9-.33,15.58v11l1.41-2.38a33.75,33.75,0,0,0-1.49,10.49v27.33c0,17.31.75,21.24,1.55,22.9l.06.11.06.1A9.14,9.14,0,0,0,421,550.4c-5.76-.2-10-.3-12.75-.3-3.2,0-7.58.06-13,.19h0l-1.63.06a8.66,8.66,0,0,0,4.09-3.75l0,0,0,0c.88-1.75,1.79-5.85,1.79-22.95V493.35c0-12.56-1-16.41-1.68-18.22-1.54-3.92-4.58-6.12-8.57-6.17v.51l-.06-.51v2.82l-.52-2.73a234.5,234.5,0,0,0,26.87-7.49m35.16-3.82h-.21q-20.78,0-32.28,19.41,0-11.65.45-17.32c0-1.13-.82-1.69-2.44-1.69a227.65,227.65,0,0,1-33,9c-1.7.33-2.54,1.06-2.92,2.18v.9a4.14,4.14,0,0,0,2.32,2.83h1l5.6-1.05h0q4.17.06,5.82,4.27,1.47,3.69,1.47,17.12v30.22q0,18.69-1.47,21.6a5.75,5.75,0,0,1-3.64,2.78,47.18,47.18,0,0,1-7.76,1.06c-1,.2-1.46.85-1.46,2.39s.49,2.29,1.46,2.29c1.19,0,5.05-.13,11.7-.4q8.14-.19,12.94-.19,4.61,0,15.14.39c3.43.07,6,.13,7.76.2,1.25,0,1.87-.84,1.87-2.29s-.62-2.25-1.87-2.39c-4.05-.4-6.48-.7-7.32-.9a6.26,6.26,0,0,1-4.49-3q-1.24-2.58-1.25-21.59V496.18a30.84,30.84,0,0,1,4.41-16.42,26.28,26.28,0,0,1,7.48-7.92,20,20,0,0,1,11.39-3.8q10.73,0,15.23,10.32,2.56,5.4,2.57,17.62v27q0,19.14-1.71,22.59a6.28,6.28,0,0,1-3.73,3,36,36,0,0,1-7.46,1c-1.14,0-1.7.9-1.7,2.5s.42,2.4,1.7,2.4,5.22-.13,11.83-.42q8.42-.2,13.11-.2,4.15,0,10.76.2l13,.42c1.14,0,1.71-.94,1.71-2.4s-.58-2.29-1.71-2.5a55,55,0,0,1-7.13-.93,6.32,6.32,0,0,1-4.27-3.12q-1.71-3.64-1.71-22.59V509.61l-1.08-22.72s-3.69-18.26-11.37-23.37a33.18,33.18,0,0,0-18.74-5.78Z"/></g><g id="e"><path class="cls-2" d="M329.69,555.56c-14.76,0-26.68-5.11-35.43-15.2C286.8,531.73,283,520.88,283,508.11c0-14.5,5-26.69,14.81-36.23A44.4,44.4,0,0,1,329,459.25h.83c12.65,0,22.91,4.9,30.52,14.56,5.41,6.95,8.33,14.32,8.65,21.92a4.51,4.51,0,0,1-.66,2.4,2.64,2.64,0,0,1-1.61.53h-.37c-13.9-.4-27.41-.6-40.18-.6h-2c-6.53,0-12.76.06-18.53.18l-1.15,0-.27,1.11a33.21,33.21,0,0,0-.95,7.75c0,13.62,3.94,24.62,11.72,32.72,5.91,6.11,12.51,9.21,19.62,9.21,7.28,0,13.46-1.4,18.36-4.17a41.75,41.75,0,0,0,11.94-11.24.88.88,0,0,1,.67-.38,3.13,3.13,0,0,1,1.21.53,5.45,5.45,0,0,1,.94.9,5,5,0,0,1-.68,1.3c-4.94,7.41-10.69,12.66-17.13,15.64C344.4,554.24,337.59,555.56,329.69,555.56Zm.16-93.26c-6.39,0-12,3.26-16.6,9.69-3.76,5.25-6.45,12-8,20.07l-.34,1.75,1.78,0c7.55.14,12.3.2,15.39.2,7.49,0,15.48-.3,23.75-.9,1.24-.14,3.23-.92,3.23-4.66-.43-7.48-2.26-13.66-5.45-18.45C340.23,464.9,335.59,462.3,329.85,462.3Z"/><path class="cls-3" d="M329,460.75h.86c12.3,0,21.89,4.58,29.3,14,5.21,6.68,8,13.76,8.34,21a3.17,3.17,0,0,1-.29,1.32,1.28,1.28,0,0,1-.48.09h-.33c-13.89-.4-27.42-.6-40.21-.6h-2.08c-6.52,0-12.75.06-18.52.18l-2.3,0-.55,2.24a34.54,34.54,0,0,0-1,8.1c0,14,4.08,25.37,12.15,33.76,6.19,6.42,13.15,9.67,20.69,9.67s14-1.47,19.1-4.37l.06,0,0,0a43,43,0,0,0,12-11.17l0,0,.05,0-.07.09,0,0,0,.05c-4.75,7.14-10.29,12.2-16.5,15.07-5.33,2.52-11.93,3.79-19.6,3.79-14.5,0-25.72-4.8-34.3-14.68-7.21-8.35-10.87-18.87-10.87-31.27,0-14.27,4.69-25.78,14.37-35.16A42.85,42.85,0,0,1,329,460.75M304.3,489.32h-.57v3.05l3,.27,0,2.7c7.59.14,12.35.2,15.41.2,7.52,0,15.55-.3,23.86-.9h.12c1.05-.12,4.5-.92,4.5-6.15v-.18c-.44-7.66-2.35-14.09-5.69-19.09-3.69-5.58-8.75-8.41-15-8.41-6.91,0-12.9,3.47-17.82,10.31a50.09,50.09,0,0,0-7.73,18.21M329,457.75a46.18,46.18,0,0,0-32.25,13.05q-15.27,14.82-15.27,37.31,0,19.8,11.61,33.23,13.64,15.72,36.56,15.72,12.24,0,20.88-4.07,10.1-4.66,17.72-16.13a6.34,6.34,0,0,0,1-2.18c0-.55-.56-1.25-1.64-2.11a4.51,4.51,0,0,0-1.93-.8h-.1a2.35,2.35,0,0,0-1.94,1,40.43,40.43,0,0,1-11.46,10.8q-7,4-17.62,4-10.08,0-18.54-8.75Q304.8,527,304.79,507.12a31.22,31.22,0,0,1,.91-7.39q8.66-.18,18.45-.18h2.07q19.25,0,40.13.6a3,3,0,0,0,.42,0,4.2,4.2,0,0,0,2.75-1,6.05,6.05,0,0,0,1-3.47q-.51-11.94-9-22.79-11.93-15.12-31.67-15.13Zm-22.3,34.59q2.25-11.83,7.73-19.48,6.51-9.06,15.38-9.06,7.84,0,12.53,7.07,4.59,6.87,5.2,17.61c0,2-.62,3-1.84,3.16q-12.42.9-23.64.9c-3.31,0-8.45-.07-15.36-.2v0Z"/></g><g id="H"><path class="cls-2" d="M202,553.54a.5.5,0,0,1-.22,0,1.61,1.61,0,0,1-.12-.79c0-1.08.33-1.12.53-1.14a74,74,0,0,0,10.29-1.44l.14,0a9.09,9.09,0,0,0,5.33-4.48c1.86-3.47,2.76-12.87,2.76-28.72V479l-1.41-.09c-8.74-.52-21-.79-36.34-.8-15.9,0-28.46.27-37.34.8l-1.41.09V529.9c0,7.53.64,12.36,1.94,14.76s4,3.94,7.6,4.69c1.55.29,4.94.69,10.4,1.24.3,0,.51.06.51.93,0,1-.22,1-.56,1-2.13-.07-5.52-.13-10.33-.21-9.48-.26-16.49-.39-20.81-.39-10.15,0-20.15.2-29.75.59a3.06,3.06,0,0,1-.08-.82,2.57,2.57,0,0,1,.18-1.14,71.54,71.54,0,0,0,10.42-1.43,9.2,9.2,0,0,0,5.63-4.45c1.61-2.54,2.52-6.5,2.8-12.1.13-2.43.2-8,.2-16.64V442.65c0-10.76-.18-17.37-.53-20.22a19.35,19.35,0,0,0-2.46-7.74c-1.07-2.16-3.32-3.69-6.66-4.46A99,99,0,0,0,102.4,409c-.2,0-.26-.64-.26-1.14a3.43,3.43,0,0,1,.2-1.43c1.6,0,7.13.18,16.46.51,5.73.2,10.38.3,13.81.3H133c3.88,0,9.3-.14,16.11-.41l13.55-.4c.57,0,1,0,1,1.43V408l0,.11a.78.78,0,0,1-.14.57.91.91,0,0,1-.57.34,98.32,98.32,0,0,0-10.43,1.44,10.33,10.33,0,0,0-6,4.17l-.06.09-.05.11c-1,2-2.23,7.06-2.23,27.86v30.07l1.44.07c8.72.39,21,.59,36.52.59h.8c15.36,0,27.57-.2,36.31-.59l1.43-.07v-31c0-11.07-.1-17.7-.31-20.26a21.36,21.36,0,0,0-1.89-7.57l0-.07,0-.07c-1.36-2.34-3.79-3.87-7.22-4.56-1.18-.22-4.54-.58-10.3-1.09-.24,0-.3-.64-.3-1.14,0-1.08.22-1.39.26-1.43h.1c1.62,0,7.72.18,16.73.5,5.9.2,10.8.3,14.56.3s9-.13,15.59-.41l13.66-.39c.72,0,1,.11,1,1.23s-.34,1.28-1,1.34c-6,.62-9.68,1.18-11.29,1.73a8.47,8.47,0,0,0-4.5,4c-2.14,3.55-3.19,12.69-3.19,27.95v75.15c0,11.15.18,18,.53,21a18.7,18.7,0,0,0,2.47,7.76c1.4,2.33,3.85,3.89,7.29,4.65a99.49,99.49,0,0,0,10.36,1.24,2.6,2.6,0,0,1,.17,1.14,1.89,1.89,0,0,1-.12.81h0a1.41,1.41,0,0,1-.22,0c-2.49-.07-6-.13-10.56-.21-9.46-.26-16.31-.39-20.32-.39C231.63,552.94,221.76,553.13,202,553.54Z"/><path class="cls-3" d="M256.36,407.16a35.76,35.76,0,0,0-6.62,1.23l-.05,0-.05,0a9.82,9.82,0,0,0-5.21,4.63c-1.48,2.45-3.39,8.18-3.39,28.68v75.15c0,11.16.18,18.09.54,21.16a20.55,20.55,0,0,0,2.68,8.42c1.62,2.68,4.39,4.48,8.25,5.32l.07,0h.07l.1,0h-.24c-9.51-.26-16.36-.39-20.38-.39-.17,0-.63,0-20.57.4l1.21-.25.14,0,.14,0a10.66,10.66,0,0,0,6.19-5.18c1.26-2.38,2.94-8,2.94-29.45V477.61l-2.82-.17c-8.77-.53-21-.8-36.43-.81-15.92,0-28.51.27-37.42.81l-2.82.17V529.9c0,10.37,1.2,13.8,2.11,15.48l0,.06,0,.06c1.62,2.69,4.5,4.48,8.55,5.32h.08c-9.34-.26-16.26-.39-20.57-.39-6.51,0-13,.08-19.29.24l.37-.08.1,0,.09,0a10.69,10.69,0,0,0,6.43-5.11c1.73-2.77,2.7-7,3-12.77.14-2.49.2-8,.2-16.74v-73.3c0-10.77-.17-17.43-.53-20.36a20.76,20.76,0,0,0-2.61-8.27c-1.32-2.61-3.9-4.38-7.66-5.25l-.08,0-.09,0c-1.46-.25-2.94-.47-4.42-.66l10.32.35c5.76.2,10.42.3,13.85.3H133c3.89,0,9.33-.14,16.14-.41l8.56-.25q-2.72.38-5.39.88l-.09,0-.09,0a11.82,11.82,0,0,0-6.8,4.75l-.13.19-.09.21c-1.11,2.31-2.38,7.64-2.37,28.51v31.51l2.86.12c8.75.4,21,.6,36.57.6h.82c15.38,0,27.62-.2,36.38-.6l2.86-.12V441.7c0-11.06-.1-17.72-.31-20.35a22.78,22.78,0,0,0-2-8.1l-.06-.14-.08-.13c-1.59-2.73-4.35-4.5-8.26-5.28-.5-.1-1.51-.25-4.34-.54,2.76.08,6.33.2,10.52.35,5.91.2,10.83.3,14.61.3s9.08-.13,15.62-.41l8.5-.24m5.08-3.15-13.67.4c-6.74.27-11.86.4-15.53.4s-8.5-.09-14.51-.3c-9.67-.34-15.25-.5-16.78-.5-1.24,0-1.86,1-1.86,2.93,0,1.62.56,2.49,1.66,2.63q8.5.76,10.15,1.07c3.11.63,5.12,2,6.22,3.85a20.15,20.15,0,0,1,1.76,7.07q.3,3.75.3,20.14v29.59q-13.12.58-36.24.59h-.82q-23.33,0-36.43-.59V442.65q0-22.87,2.07-27.22a8.81,8.81,0,0,1,5.07-3.54,98.27,98.27,0,0,1,10.25-1.42h.11a2.31,2.31,0,0,0,2-2.62c0-1.95-.87-2.93-2.59-2.93l-13.57.4q-10.25.4-16.05.41h-.35c-3.41,0-8-.1-13.74-.3q-14.3-.51-16.56-.51c-1.11,0-1.66,1-1.66,2.93,0,1.62.56,2.49,1.66,2.63a99.66,99.66,0,0,1,10,1.22c2.9.67,4.79,1.92,5.69,3.74a18,18,0,0,1,2.28,7.19q.51,4.13.51,20V516q0,12.94-.19,16.58-.41,8-2.59,11.42a7.62,7.62,0,0,1-4.66,3.73A69.11,69.11,0,0,1,103,549.09c-1,.14-1.44,1.08-1.44,2.63s.48,2.33,1.44,2.33q14.53-.6,29.89-.6,6.52,0,20.79.39c4.7.08,8.15.14,10.35.21,1.37,0,2.06-.85,2.06-2.53q0-2.22-1.86-2.43c-5.37-.53-8.78-.94-10.24-1.21-3.21-.66-5.41-2-6.59-3.93q-1.75-3.24-1.75-14.05V480.43q13.34-.8,37.24-.8,23.12,0,36.25.8v36.46q0,23.18-2.59,28a7.58,7.58,0,0,1-4.45,3.74A72.13,72.13,0,0,1,202,550.08c-1.25.14-1.87,1.07-1.87,2.63S200.75,555,202,555l30.13-.6q6,0,20.3.39c4.56.08,8.08.14,10.56.21,1.24,0,1.87-.71,1.87-2.33s-.48-2.49-1.45-2.63a98.31,98.31,0,0,1-10.26-1.22c-3-.66-5.14-2-6.31-3.94a17.25,17.25,0,0,1-2.28-7.18q-.51-4.35-.52-20.85V441.74q0-22.37,3-27.21a6.94,6.94,0,0,1,3.67-3.3q2.23-.75,10.94-1.66c1.58-.14,2.37-1,2.37-2.83s-.85-2.73-2.58-2.73Z"/></g></g><text class="cls-5" transform="translate(305.02 688.22) scale(1.02 1)">Since 2019</text><text class="cls-6" transform="translate(214.49 369.53) scale(1.02 1)">Relaxation salon</text><g id="The_Swedish_Massage" data-name="The Swedish Massage"><g id="T"><path class="cls-2" d="M140.59,334.07c-1.4-1.09-2.84-2.14-4.31-3.13q1.5-2.7,3-5.34c-.09.56-.16,1.13-.2,1.69v.17A18,18,0,0,0,140.59,334.07Zm35.33-3.93-.1-.15a8.58,8.58,0,0,0-3.46-3l-18.6-10.9a45,45,0,0,0-4.44-2.4,5.18,5.18,0,0,0-2-.41,5.52,5.52,0,0,0-.71.05l-.1,0q1.23-2,2.49-4c.84-1.34,1.7-2.67,2.55-4,0,.07.05.3.05.3l0,.09a5.72,5.72,0,0,0,2.36,3c.32.23,1.28.92,3.18,2.08L173,320.72c3.37,2.1,4.14,2.54,4.43,2.69a5.82,5.82,0,0,0,2.41.62H180l.1,0c-.65,1-1.31,2-2,3.11s-1.4,2.25-2.05,3.34C176,330.41,175.92,330.14,175.92,330.14Zm-16.58-36.39c1.14-1.64,2.28-3.27,3.42-4.86,1.66.9,3.2,1.69,4.64,2.4a15.65,15.65,0,0,0-6.36,1.45A12.05,12.05,0,0,0,159.34,293.75Z"/><path class="cls-3" d="M151.4,308.42a7.08,7.08,0,0,0,1.76,1.6c.72.53,1.92,1.31,3.22,2.11L172.16,322c3.36,2.1,4.18,2.57,4.55,2.76a7.19,7.19,0,0,0,.86.37c-.25.4-.5.8-.76,1.2l-.89,1.43a10.28,10.28,0,0,0-2.86-2.06l-2.49-1.46-16-9.39a48.05,48.05,0,0,0-4.58-2.48l-.07,0-.07,0c-.24-.09-.48-.18-.72-.25l1.17-1.86,1.13-1.77m10.91-21.48c-4.68,6.5-9.58,13.74-14.57,21.64s-9.44,15.57-13.44,22.85a76.14,76.14,0,0,1,7.26,5.34.41.41,0,0,0,.18.05c.23,0,.47-.19.75-.58a3.75,3.75,0,0,0,.24-.44.74.74,0,0,0,0-.81,16.35,16.35,0,0,1-2.16-7.58,19.53,19.53,0,0,1,3.14-9.15c1.26-2.15,2.32-3.28,3.12-3.41a2.81,2.81,0,0,1,.5,0,3.5,3.5,0,0,1,1.35.27,46,46,0,0,1,4.32,2.33l16.05,9.41,2.61,1.53a7.11,7.11,0,0,1,2.92,2.48,2.73,2.73,0,0,1,0,1.87c-.16.45-.62,1.45-1.36,3l0,.08a.62.62,0,0,0,.34.81l.14.07a.45.45,0,0,0,.2,0,.56.56,0,0,0,.52-.36c1.34-2.47,3-5.28,5-8.44s3.88-6,5.68-8.45a.64.64,0,0,0,.1-.13.61.61,0,0,0-.26-.83l-.07-.05a.61.61,0,0,0-.32-.08.6.6,0,0,0-.51.28c-1.1,1.39-1.78,2.25-2.08,2.55a3.32,3.32,0,0,1-2,1.32,4.18,4.18,0,0,1-1.77-.45q-.62-.31-4.33-2.63L158,309.59c-1.61-1-2.64-1.69-3.11-2a4.19,4.19,0,0,1-1.79-2.25,3.2,3.2,0,0,1,.25-2,17.17,17.17,0,0,1,1.42-2.36c2.39-3.54,4.77-5.77,6.93-6.82a14.15,14.15,0,0,1,6-1.32,15.81,15.81,0,0,1,1.69.1h.07a.75.75,0,0,0,.66-.4c.08-.11.18-.25.29-.42.24-.53.25-.86,0-1.05q-3.61-1.65-8-4.08Z"/></g><g id="h-2" data-name="h"><path class="cls-2" d="M196.91,300.35c-.39-.74-1.35-1.82-4.31-4.07l-18.37-14a21.45,21.45,0,0,0-3.7-2.42,3,3,0,0,0-1.27-.29,2.73,2.73,0,0,0-.41,0c1-1.78,2-3.69,3.06-5.75l2.05,1.76c2.11,1.84,4.3,3.74,6.49,5.49,2,1.66,3.17,2.56,5,4l3.85,3.07,0-.12q.32.31.66.6l5.41,4.33c3.14,2.52,4.25,3.13,4.88,3.3l-.2.24c-.41.48-.78.9-1.11,1.27C198.45,298.34,197.78,299.21,196.91,300.35Zm13.32-15.6a8.09,8.09,0,0,0-2.35-2.85L201,275.84l-.86-.75a8.16,8.16,0,0,0-3.45-1.93,6.29,6.29,0,0,0-1.38-.16,6.53,6.53,0,0,0-3.41,1,14.11,14.11,0,0,1,5.06-3.73,4.87,4.87,0,0,1,2.19-.53,4.68,4.68,0,0,1,3.25,1.29l4.17,4,2.58,2.37c2.92,2.71,4.12,3.37,4.66,3.57-.67.67-1.22,1.25-1.66,1.71S211.07,283.79,210.23,284.75Z"/><path class="cls-3" d="M199.1,271.23a3.17,3.17,0,0,1,2.21.87l4.17,4,0,0,0,0,2.55,2.34a39.76,39.76,0,0,0,3.28,2.78l-.35.38c-.16.16-.36.38-.59.63a9,9,0,0,0-1.59-1.55l-1.65-1.44L202,274.72l-.83-.72a9.52,9.52,0,0,0-3.9-2.23l.29-.13.07,0,.07,0a3.32,3.32,0,0,1,1.45-.34m-26.74,5,.61.53c2.13,1.84,4.33,3.75,6.52,5.5s3.2,2.59,5.08,4.09l.67.54,6.28,5v0l2.91,2.33c1.52,1.22,2.61,2,3.45,2.58l-.06.06c-.26.3-.57.67-.92,1.12a36,36,0,0,0-3.37-2.83l-18.34-14a22.2,22.2,0,0,0-4-2.59l-.06,0c.4-.74.8-1.5,1.21-2.28m26.74-8a6.15,6.15,0,0,0-2.79.66,15.41,15.41,0,0,0-5.68,4.22,12.93,12.93,0,0,0-3.52,11.4c-2.29-1.83-3.43-2.73-5.72-4.6-3.23-2.58-6.41-5.45-9.52-8.09a.27.27,0,0,0-.19-.08c-.17,0-.38.14-.6.42q-3.18,6.21-6.2,11.37c-.26.46-.3.77-.12.9l.24.13a.91.91,0,0,0,.44.13.48.48,0,0,0,.41-.21s.1-.13.21-.27l1.23-1.77.16-.21a2.46,2.46,0,0,1,1.81-1.18,1.51,1.51,0,0,1,.58.12,19.74,19.74,0,0,1,3.48,2.29l18.38,14c2.39,1.81,3.69,3,3.94,3.67a1.6,1.6,0,0,1-.13,1.3,20,20,0,0,1-1.35,2.2l0,0a.51.51,0,0,0,.14.72.84.84,0,0,0,.44.18.47.47,0,0,0,.39-.24c.22-.3,1-1.38,2.31-3.16,1.1-1.46,2.06-2.74,2.64-3.39s1.29-1.49,2.16-2.49c1.65-1.93,2.53-2.87,2.64-3l.09-.1a.57.57,0,0,0-.14-.81.52.52,0,0,0-.32-.13.81.81,0,0,0-.54.29,24.43,24.43,0,0,1-1.79,1.73,1.86,1.86,0,0,1-1.34.56h-.07q-.78-.12-4.44-3.05l-5.4-4.32a6.28,6.28,0,0,1-2.23-3.73,7.55,7.55,0,0,1,2-6.78,6.3,6.3,0,0,1,4.64-2.49,4.17,4.17,0,0,1,1,.11,6.67,6.67,0,0,1,2.85,1.6l.87.76,5.24,4.59,1.73,1.5a6.51,6.51,0,0,1,1.95,2.38,1.62,1.62,0,0,1-.18,1.25,18.9,18.9,0,0,1-1.43,2l-.06.07a.58.58,0,0,0,.47.9.71.71,0,0,0,.52-.26c.24-.26,1-1.19,2.29-2.7,1.08-1.27,2.11-2.39,2.7-3s1.37-1.44,2.36-2.43c1.85-1.84,2.87-2.83,2.93-2.89a.57.57,0,0,0,.11-.11.5.5,0,0,0-.11-.71l0,0a.59.59,0,0,0-.37-.14.56.56,0,0,0-.4.17c-1,.86-1.58,1.37-1.79,1.53a1.94,1.94,0,0,1-1.3.5h-.22c-.54-.13-2-1.18-4.27-3.29L207.56,274l-4.17-4a6.2,6.2,0,0,0-4.29-1.71Z"/></g><g id="e-2" data-name="e"><path class="cls-2" d="M221.11,269.22a9.56,9.56,0,0,1-9.6-8.72,9.11,9.11,0,0,1,.24-2.8,16,16,0,0,1,1.82-4.75c0,.23,0,.45,0,.68a11.6,11.6,0,0,0,1.74,6l.94,1.54,0,0a6.83,6.83,0,0,0,1.33,1.83,11.48,11.48,0,0,0,8.46,3.69h0c.33,0,.66,0,1,0a10.72,10.72,0,0,0,3.35-.7,15.51,15.51,0,0,1-8.54,3.26Zm6.71-19.91a2.14,2.14,0,0,0-.61-1.27l-.12-.11a8.44,8.44,0,0,0-5.1-2.49,11.44,11.44,0,0,1,4.41-.9c.21,0,.42,0,.63,0h.15a7.08,7.08,0,0,1,4.51,1.62Q229.73,247.74,227.82,249.31Z"/><path class="cls-3" d="M227.25,246.06a5.72,5.72,0,0,1,1.79.32l-.76.61-.16-.15a10.56,10.56,0,0,0-.87-.78m-14.17,12.59a13.51,13.51,0,0,0,.92,1.77l.61-.38,0,.06v.34c0,1.09.51,2.06,1.88,3.56a13,13,0,0,0,5.89,3.65l-.6,0h-.06l-.59,0a8.06,8.06,0,0,1-8.1-7.33,7.78,7.78,0,0,1,.07-1.74M226.4,243a15,15,0,0,0-10,4.24,18.1,18.1,0,0,0-6.1,10.06,10.58,10.58,0,0,0-.27,3.27,11,11,0,0,0,11.09,10.11l.8,0c4-.19,7.7-1.92,11.34-5.14a20.31,20.31,0,0,0,4.32-5.11,13.72,13.72,0,0,0,1.75-6.64,1.24,1.24,0,0,0-.11-.63.78.78,0,0,0-.42-.09l-.32,0a1.47,1.47,0,0,0-.61.24.82.82,0,0,0-.35.61,12.16,12.16,0,0,1-1.08,4.38,14.33,14.33,0,0,1-3.6,4.42,9.76,9.76,0,0,1-5.93,2.38q-.43,0-.87,0a10,10,0,0,1-7.35-3.2,4.88,4.88,0,0,1-1.09-1.53c.2-.85,3.21-3.07,5-4.67q4.8-4.29,10.21-8.56a1.48,1.48,0,0,0,.65-.86,1.11,1.11,0,0,0-.3-.87,8.53,8.53,0,0,0-6-2.42h-.06l-.72,0Zm-9.85,15.81a10.21,10.21,0,0,1-1.51-5.23,6.89,6.89,0,0,1,2.35-5.19,5.48,5.48,0,0,1,3.82-1.54l.59,0a7,7,0,0,1,4.27,2.12l.08.06a.65.65,0,0,1,0,.93c-2,1.91-3.92,3.71-5.78,5.39l-3.8,3.43h0l-.05,0,0,0Z"/></g><g id="S"><path class="cls-2" d="M265.69,237.22h-.14c-.74-.13-2.7-2-4.05-3.36a23.94,23.94,0,0,0,7.54,1.3h.37c.6,0,1.2,0,1.8-.1-2.16,1.14-4.38,2.16-5.52,2.16ZM283,226.7a7.67,7.67,0,0,0-6.65-10.44c-.65,0-1.29,0-1.93,0a31,31,0,0,0-6.58.7c-1.06.18-1.74.31-2.66.48l-.94.17a39.49,39.49,0,0,1-7.49.94,10.24,10.24,0,0,1-2.25-.21,6.89,6.89,0,0,1-4.19-3c-1.32-1.9-1.18-4.14.4-6.9a21,21,0,0,1,2.43-3.15l-.14.35a6.79,6.79,0,0,0,.74,6.27c1.12,1.71,3.24,2.6,6.29,2.6a28.18,28.18,0,0,0,5.53-.65c1.43-.3,2.2-.45,3.5-.7l.42-.08a47.39,47.39,0,0,1,8.29-.92,12.47,12.47,0,0,1,3.09.31,7,7,0,0,1,4.43,3.68c1.53,2.74,1.38,5.45-.44,8.38a16.68,16.68,0,0,1-2,2.55C282.89,226.93,282.93,226.81,283,226.7Zm-9.92-27.46a17.16,17.16,0,0,0-6.76-1.63,26.09,26.09,0,0,0,2.61-1.25c.47-.22,1-.5,1.59-.85C271.05,196.33,271.88,197.53,273.06,199.24Z"/><path class="cls-3" d="M251.37,210.4a8.19,8.19,0,0,0,1.1,2.29c1.43,2.18,4,3.29,7.54,3.29a29.2,29.2,0,0,0,5.84-.69c1.37-.28,2.13-.43,3.35-.66l.52-.1a45.69,45.69,0,0,1,8-.9,11.82,11.82,0,0,1,2.69.25,5.56,5.56,0,0,1,3.48,2.89l0,.09,0,.08a5.64,5.64,0,0,1,.63,4.37,9.27,9.27,0,0,0-.95-2.14,9.08,9.08,0,0,0-7.26-4.4c-.67,0-1.35-.07-2-.07a32.68,32.68,0,0,0-6.83.73l-2.66.48-1,.19a38.55,38.55,0,0,1-7.18.9,8.47,8.47,0,0,1-1.87-.16,5.45,5.45,0,0,1-3.31-2.34l0-.05,0,0c-.33-.47-1.11-1.59-.12-4m19.59-17a22,22,0,0,1-2.77,1.59,26.05,26.05,0,0,1-3.69,1.67,40.51,40.51,0,0,0-6.76,3.1,22.86,22.86,0,0,0-8.36,7.86c-1.89,3.31-2,6.12-.35,8.44a8.43,8.43,0,0,0,5.12,3.65,12.18,12.18,0,0,0,2.58.24,41.9,41.9,0,0,0,7.76-1l3.65-.67a29.83,29.83,0,0,1,6.25-.67c.62,0,1.23,0,1.84.06a6.12,6.12,0,0,1,4.88,3,6.23,6.23,0,0,1,.47,5.45,10.75,10.75,0,0,1-5,5.57,14.42,14.42,0,0,1-7.21,1.93h-.36a22.27,22.27,0,0,1-9.26-2.11.71.71,0,0,0-.32-.07.7.7,0,0,0-.49.19,2,2,0,0,0-.33.25c-.39.34-.49.64-.3.91a1.37,1.37,0,0,0,.17.17c2,2,5.14,5.43,6.79,5.7a2.34,2.34,0,0,0,.38,0c2.5,0,7.88-3.2,11.19-5.21,4.33-2.6,7.4-5.3,9.22-8.22,2.07-3.34,2.3-6.65.52-9.82a8.56,8.56,0,0,0-5.41-4.49,14.29,14.29,0,0,0-3.46-.35,49.5,49.5,0,0,0-8.58.94c-1.57.31-2.35.46-3.93.79A26.87,26.87,0,0,1,260,213c-2.5,0-4.18-.62-5-1.95a5.25,5.25,0,0,1-.58-4.87,9.63,9.63,0,0,1,4.54-5,13.71,13.71,0,0,1,7.08-2,16.5,16.5,0,0,1,8.37,2.5.69.69,0,0,0,.36.11.7.7,0,0,0,.37-.11l.35-.22c.38-.29.52-.55.38-.8q-4.27-6.14-4.87-7.14Z"/></g><g id="w"><path class="cls-2" d="M306.29,216.06c-1.13-1.05-2.3-2.09-3.52-3.17l-1.23-1.09c-3.33-2.78-5-4.12-8.32-6.74a20.13,20.13,0,0,0-4.81-3.22c1.06-.5,1.76-.81,2.11-1l.35-.17-.08,0c.74-.36,1.62-.78,2.69-1.32a2.74,2.74,0,0,0,.29.92l.06.11.08.1a18.59,18.59,0,0,0,3.92,3.85c2.39,2,3.57,3,5.95,5.08.13.11.76.69,2.93,3l1.77,1.82v.15c-.81.56-1.48,1.1-2.14,1.63Zm16.41-6.86c-1.62-1.72-3.13-3.24-4.51-4.54-1.89-1.76-2.85-2.63-4.78-4.37-.48-.44-1-1-1.56-1.56a7.25,7.25,0,0,0-2.45-1.44h0a2.43,2.43,0,0,0-.14-.48c-.5-1.24-2.08-2.28-3.3-2.86l1.77-.7c.3-.09.8-.31,2-.84l.56-.24a2.48,2.48,0,0,0,.22.85c.32.74,1.13,1.76,3.88,4.23l5.51,5.21a41.46,41.46,0,0,1,3.07,3.09l1.46,1.68c0,.22,0,.41,0,.58C323.86,208.29,323.29,208.75,322.7,209.2ZM325.59,189c0-.24-.09-.49-.14-.73l0-.09,0-.09a3.42,3.42,0,0,0-.85-1.3l1.29-.42.77-.28A13.78,13.78,0,0,0,325.59,189Z"/><path class="cls-3" d="M309.43,194.18a13.06,13.06,0,0,0,2.09,2.44,9,9,0,0,0-.93-.47,5.67,5.67,0,0,0-1.42-1.87l.26-.1m-16.71,7.29a20.15,20.15,0,0,0,4.19,4.11c2.38,2,3.55,3,5.86,5,.09.08.62.57,2.59,2.6l-1.62-1.43-1.2-1.07,0,0,0,0c-3.28-2.73-4.95-4.07-8.23-6.67a21.05,21.05,0,0,0-2.55-2l1-.51m38.42-18.54a.88.88,0,0,0-.2,0c-3.42,1.22-5.3,1.92-5.58,2-.9.31-2.91.92-6,2-.35.12-.45.37-.29.76a.09.09,0,0,0,0,.05.56.56,0,0,0,.52.35.43.43,0,0,0,.19,0,10.33,10.33,0,0,1,2.59-.46,2,2,0,0,1,1.12.26,2,2,0,0,1,.49.75,13.93,13.93,0,0,1,.28,4.22c-.07,2.72-.08,4.09-.07,6.79s0,4.34-.08,4.92c-.54-.62-1.57-1.71-3.17-3.2-2.19-2.05-3.3-3.11-5.54-5.22-2-1.85-3.24-3.08-3.51-3.74a.94.94,0,0,1-.1-.5c.09-.42,1-1.06,2.9-1.89a.31.31,0,0,0,.12,0,.5.5,0,0,0,.19-.71c-.12-.28-.28-.42-.5-.42a.67.67,0,0,0-.24,0c-4.53,1.88-6.85,2.94-7,2.94-.89.37-2.42.95-4.5,1.78l-2.39,1c-.33.13-.41.4-.23.78s.27.4.46.4a.63.63,0,0,0,.22,0,7,7,0,0,1,3.2-.77h.36c.86.21,3.05,1.38,3.47,2.42a9.4,9.4,0,0,1,0,3.56v5.78s-.07,1.18,0,2.32a23,23,0,0,1,0,2.35c-1.63-1.68-2.65-2.7-3-3-2.38-2.07-3.58-3.09-6-5.13a16.75,16.75,0,0,1-3.66-3.57,1.4,1.4,0,0,1-.15-.53c0-.42.95-1.12,2.86-2.12.24-.1.29-.33.11-.69s-.27-.42-.47-.42a.56.56,0,0,0-.23.06c-.32.15-1.46.67-3.36,1.61-1.56.78-2.76,1.38-3.72,1.84-.05,0-2.39,1.06-6.93,3.26l-.13.06a.5.5,0,0,0-.15.7c.15.28.33.41.53.41a.54.54,0,0,0,.27-.07,6.22,6.22,0,0,1,3-.78c.21,0,.42,0,.62,0a19.1,19.1,0,0,1,4.93,3.23c3.34,2.64,5,4,8.25,6.69,1.84,1.63,3.61,3.17,5.33,4.8a.58.58,0,0,0,.39.15.78.78,0,0,0,.22,0c1.06-.83,2.07-1.7,3.5-2.63v-6.5a48.55,48.55,0,0,0-1.08-6.41V198.7a6.06,6.06,0,0,1,1.86,1.06c.57.59,1.13,1.17,1.65,1.65,1.92,1.73,2.87,2.59,4.75,4.35,1.47,1.38,3.15,3.07,5,5.07a.59.59,0,0,0,.45.2.47.47,0,0,0,.17,0,33.64,33.64,0,0,0,3.09-2.49c.05-.72.11-2.87.27-6.48.19-4,.31-6,.61-10a11.93,11.93,0,0,1,1.37-5.55,7,7,0,0,1,3.15-2.31h0a.53.53,0,0,0,.3-.71c-.1-.34-.26-.48-.46-.48Z"/></g><g id="e-3" data-name="e"><path class="cls-2" d="M350.07,199.83a13.46,13.46,0,0,1-5.91-1.3,9.65,9.65,0,0,1-5.28-5.85,9,9,0,0,1,1.6-8.82,15.51,15.51,0,0,1,3.25-3.07l-.06.13a11.6,11.6,0,0,0-1.19,6.08l.11,1.38h.24c-.16.38-.27,1.13.25,2.82a11.4,11.4,0,0,0,6.53,7.48,10.78,10.78,0,0,0,3.24.92A18.27,18.27,0,0,1,350.07,199.83Zm7.84-16a2.29,2.29,0,0,0,.07-1.66,8.42,8.42,0,0,0-2.85-4.25,10.87,10.87,0,0,1,4.15,1.41,7,7,0,0,1,3.3,3.51C361,183.13,359.44,183.46,357.91,183.8Z"/><path class="cls-3" d="M359.17,181a5.49,5.49,0,0,1,1,.81l-.66.14c0-.06,0-.12-.05-.18-.08-.26-.16-.52-.26-.77M341,185.77a12.18,12.18,0,0,0,0,1.35l.22,2.76h0a9.51,9.51,0,0,0,.39,1.71,12.78,12.78,0,0,0,3.22,5.61l0,0,0,0h0a8.14,8.14,0,0,1-4.44-4.92v0l0,0a7.53,7.53,0,0,1,.67-6.38m12.49-9.49a18.76,18.76,0,0,0-4.51.59,17.09,17.09,0,0,0-9.61,6,10.57,10.57,0,0,0-1.87,10.24,11.13,11.13,0,0,0,6.07,6.75,15,15,0,0,0,6.55,1.43,21.46,21.46,0,0,0,5.43-.75,19.12,19.12,0,0,0,5.95-2.53,13.31,13.31,0,0,0,4.38-5.1,1.41,1.41,0,0,0,.19-.6c0-.13-.25-.29-.62-.39a1.38,1.38,0,0,0-.45-.08h-.17a.86.86,0,0,0-.58.38,11.56,11.56,0,0,1-2.81,3.38,13.47,13.47,0,0,1-5,2.26,9.46,9.46,0,0,1-2.23.28,9.2,9.2,0,0,1-3.92-.88,10,10,0,0,1-5.7-6.55c-.17-.56-.42-1.6-.26-1.81.41-.61,4-1.21,6.33-1.81q6-1.57,12.55-2.9a1.52,1.52,0,0,0,.94-.47,1.1,1.1,0,0,0,.12-.9A8.38,8.38,0,0,0,360,178a12.73,12.73,0,0,0-6.6-1.73ZM344,186.88a10.08,10.08,0,0,1,1-5.31,6.53,6.53,0,0,1,4.32-3.47,5.35,5.35,0,0,1,1.53-.23,5.2,5.2,0,0,1,2.92.89,7,7,0,0,1,2.76,3.82c.14.46,0,.78-.38.9q-3.84,1.19-7.33,2.11c-1,.29-2.64.7-4.81,1.29Z"/></g><g id="d"><path class="cls-2" d="M381.42,192.89a12.19,12.19,0,0,1-6.95-1.92,10,10,0,0,1-4.25-6.51l0-.11a9.22,9.22,0,0,1,2.3-8.74,15.44,15.44,0,0,1,6.06-3.74,8.72,8.72,0,0,0-2.48,3.32,13.85,13.85,0,0,0-.61,8.48,12.35,12.35,0,0,0,4.46,7.93,9.06,9.06,0,0,0,2.4,1.27C382,192.89,381.71,192.89,381.42,192.89Zm12.83-2.67c-.06-.64-.1-1.15-.16-1.52l-.23-1.57a5.1,5.1,0,0,0,.15-.76v-.13a11.61,11.61,0,0,0-.15-2.36l-.9-6.4a11.57,11.57,0,0,0-.59-2.58l0-.07,0-.07a9.05,9.05,0,0,0-.57-1l.24.13-.43-3c-.42-3-.67-4.74-1.05-7.42l-.2-1.43a18.6,18.6,0,0,0-1-4.51l0-.11-.06-.11a2.72,2.72,0,0,0-.84-1c2.25-.71,4.12-1.33,5.73-1.91l.09,1.21c.19,2.9.42,6.18.84,9.79l.34,2.91c.67,5.69,1.1,9.37,1.82,15.84.49,4.11.89,5.29,1.41,5.93l0,0c-1.44.29-2.88.61-4.31,1Q394.3,190.64,394.25,190.22Z"/><path class="cls-3" d="M392.76,156.51c.19,2.72.41,5.77.8,9.11l.33,2.77c.66,5.69,1.1,9.45,1.84,16a34,34,0,0,0,.78,4.7l-.84.19q0-.44-.09-.78l-.19-1.28c.05-.21.08-.43.11-.65v-.26a13.57,13.57,0,0,0-.16-2.62l-.9-6.35a12.76,12.76,0,0,0-.67-2.92l-.05-.14-.06-.14-.2-.39-.43-3.06c-.46-3.28-.71-5-1.14-8.08l-.1-.7a20.67,20.67,0,0,0-1-4.73l2-.65m-18.58,19.58A15.28,15.28,0,0,0,374,184a15.88,15.88,0,0,0,2.73,6.55,10.28,10.28,0,0,1-1.38-.76,8.59,8.59,0,0,1-3.64-5.55l0-.11,0-.11a7.69,7.69,0,0,1,1.92-7.3c.2-.2.4-.4.62-.58m20.45-23.43c-3.07,1.14-6.9,2.36-11.45,3.72-.57.16-.79.39-.79.69v.19a.07.07,0,0,1,0,.05.56.56,0,0,0,.55.43h.13l.48-.07,1.68-.34h.28a4.88,4.88,0,0,1,.73,0,1.71,1.71,0,0,1,1.67.75,17.85,17.85,0,0,1,.91,4.22c.5,3.57.75,5.31,1.25,8.85a12.65,12.65,0,0,0-6.21-1.62,12.8,12.8,0,0,0-2.22.19,17.12,17.12,0,0,0-10.24,4.91,10.74,10.74,0,0,0-2.67,10.16,11.62,11.62,0,0,0,4.9,7.48,13.58,13.58,0,0,0,7.78,2.18,21.6,21.6,0,0,0,3.49-.29,10.2,10.2,0,0,0,7.7-5.18c.1.66.17,1.85.34,3.4a.4.4,0,0,0,0,.15.55.55,0,0,0,.54.4l.15,0a77.66,77.66,0,0,1,9.8-2h0a.6.6,0,0,0,.47-.7.68.68,0,0,0,0-.14.48.48,0,0,0-.48-.36h-.12l-1.47.09a2.28,2.28,0,0,1-.44,0,2.42,2.42,0,0,1-1.65-.65c-.39-.47-.74-2.2-1.09-5.15-.84-7.51-1.28-11.25-2.16-18.75-.55-4.68-.76-8.89-1-12.22,0-.23-.33-.39-.9-.39Zm-9.41,39.2a7.3,7.3,0,0,1-4.4-1.47c-2-1.45-3.28-3.81-3.91-7.08a12.4,12.4,0,0,1,.54-7.54,7.28,7.28,0,0,1,5.86-4.35,7.42,7.42,0,0,1,1.24-.11,6.91,6.91,0,0,1,5,2.17A6.55,6.55,0,0,1,391,175.4a10,10,0,0,1,.51,2.29l.91,6.43a10.14,10.14,0,0,1,.13,2.06,4.4,4.4,0,0,1-.85,2.11,7.56,7.56,0,0,1-5.08,3.45,7.93,7.93,0,0,1-1.37.12Z"/></g><g id="i-2" data-name="i"><path class="cls-2" d="M412.1,188.75a7.83,7.83,0,0,0,.32-3.81l-.17-2.12c-.26-2.75-.38-4.2-.57-7.08a18,18,0,0,0-.72-4.54l0-.09,0-.09a3.09,3.09,0,0,0-.95-1.18q2.67-.75,5.28-1.53c0,.68,0,1.35,0,2,0,2,.06,4,.17,5.72l.37,6.57c.22,4,.52,5.23.84,5.85-.84,0-1.5,0-2,.08h0C414.44,188.54,413.53,188.61,412.1,188.75Zm-.54-30.37a4.26,4.26,0,0,1-2.35-.7l-.06,0-.06,0a1.38,1.38,0,0,1-.7-.9,1.49,1.49,0,0,1,.75-1.19l.07,0,.07,0a4.28,4.28,0,0,1,2.31-.84h.33a4,4,0,0,1,2.27.7l.05,0,.06,0a1.34,1.34,0,0,1,.68.93,1.55,1.55,0,0,1-.77,1.17l-.08.05-.07.05a4.08,4.08,0,0,1-2.18.82Z"/><path class="cls-3" d="M411.92,156.08a2.46,2.46,0,0,1,1.2.3,2.49,2.49,0,0,1-1.36.49h-.21a2.81,2.81,0,0,1-1.28-.31,2.77,2.77,0,0,1,1.33-.47h.32m1.85,14.23v0c0,2,.06,4,.17,5.78l.37,6.58c.11,2,.24,3.34.4,4.33h-.13l-.6,0a9,9,0,0,0-.07-2.32l-.17-2.1c-.25-2.69-.37-4.13-.56-7a19.58,19.58,0,0,0-.78-4.92l0-.07,1.39-.4m-1.85-17.23-.4,0h0a5.87,5.87,0,0,0-3.1,1.12,3,3,0,0,0-1.5,2.6,2.83,2.83,0,0,0,1.5,2.11,5.74,5.74,0,0,0,3.16.95l.44,0a5.48,5.48,0,0,0,3-1.12,3,3,0,0,0,1.51-2.53,2.79,2.79,0,0,0-1.44-2.16,5.53,5.53,0,0,0-3.12-1Zm3.94,13.47q-5.37,1.65-10.95,3.1c-.51.1-.73.28-.73.54a1.4,1.4,0,0,0,.06.28.64.64,0,0,0,.53.57h.39l1.75-1h.54c1,.67,1.79,1,2.07,1.63a16,16,0,0,1,.66,4.23c.2,2.87.32,4.35.58,7.09l.17,2.19a6.3,6.3,0,0,1-.28,3.22,1.89,1.89,0,0,1-1,.71,17.74,17.74,0,0,1-2.29.42c-.38,0-.51.26-.51.68a.61.61,0,0,0,0,.14.56.56,0,0,0,.55.43h.12c4.54-.48,6.95-.68,7.22-.68.95-.06,2.55-.11,4.72-.16l2.36-.06c.29,0,.42-.24.41-.63s-.16-.62-.46-.62c-1.21,0-2-.06-2.29-.06a2,2,0,0,1-1.42-.63c-.33-.47-.57-2.31-.74-5.35l-.37-6.58c-.16-2.67-.15-5.75-.24-8.92,0-.34-.3-.48-.84-.48Z"/></g><g id="s-2" data-name="s"><path class="cls-2" d="M430.59,189.33a6,6,0,0,1-2.39-.65,6.61,6.61,0,0,1-.62-1.79A15.76,15.76,0,0,0,430.59,189.33Zm12.27-.68a5.9,5.9,0,0,0,1.12-3.49,4.72,4.72,0,0,0-2.62-4.11,27.78,27.78,0,0,0-4.54-2l-2.31-.83a21.48,21.48,0,0,1-5.76-2.66,4.38,4.38,0,0,1-1.39-3.28c0-.86.18-2,2.19-3.27a11.86,11.86,0,0,1,1.3-.61,4.94,4.94,0,0,0-.65,2.66c0,2.7,3.36,4.12,6.29,5.06l2.42.81c4.34,1.51,6,2.67,6.64,3.23a4.38,4.38,0,0,1,1.43,3.66,5,5,0,0,1-2.58,4.1A13.57,13.57,0,0,1,442.86,188.65Zm2.65-18.33a14.09,14.09,0,0,0-2-2.16l.94.06h.15l.81,0C445.41,169,445.46,169.68,445.51,170.32Z"/><path class="cls-3" d="M428.86,172.23a5.66,5.66,0,0,0,2.07,2.88c-.42-.23-.83-.48-1.24-.74a2.81,2.81,0,0,1-.83-2.06v-.08m13.87,7.88a8.58,8.58,0,0,1,1.8,1.14,2.91,2.91,0,0,1,1,2.42v.11a4.81,4.81,0,0,1-.07.53,6.24,6.24,0,0,0-2.68-4.2m-6.58-14.24a15.76,15.76,0,0,0-7.4,1.85c-2,1.24-2.94,2.73-2.89,4.51a5.81,5.81,0,0,0,2,4.5,22.17,22.17,0,0,0,6.17,2.89l2.34.84a27.29,27.29,0,0,1,4.35,1.93,3.23,3.23,0,0,1,1.79,2.79,4.34,4.34,0,0,1-1.32,3.15,6.47,6.47,0,0,1-4.06,1.42,4.35,4.35,0,0,1-.51,0,9.75,9.75,0,0,1-4.79-1.41,14.2,14.2,0,0,1-4.61-4.28.58.58,0,0,0-.5-.33h-.46c-.45,0-.65.22-.65.47.2,1.87.83,4.89,1.61,5.61,1.27,1.16,6.12,1.4,9.39,1.4l.9,0a15.58,15.58,0,0,0,7.64-2,6.42,6.42,0,0,0,3.35-5.28,5.92,5.92,0,0,0-1.92-4.91c-1.18-1.06-3.56-2.27-7.17-3.53l-2.43-.82c-3.47-1.11-5.25-2.31-5.25-3.67-.06-2.48,1.82-3.71,5.52-3.71,3.19,0,5.92,1.84,8.15,5.45a.91.91,0,0,0,.7.41h.3c.53,0,.81-.21.81-.46-.05-1.2-.28-3.32-.38-6.07-.88.05-1.68.05-2.33.09a18.65,18.65,0,0,1-2.37-.24,30.43,30.43,0,0,0-5.12-.59l-.83,0Z"/></g><g id="h-3" data-name="h"><path class="cls-2" d="M480,191.41c-.87-.15-1.6-.26-2.2-.35l-2.42-.32a8.06,8.06,0,0,0,1-3.38l.31-2.19.94-6.71.15-1.12a8.22,8.22,0,0,0-.23-3.77,6.08,6.08,0,0,0-3.31-3.48h0a12.46,12.46,0,0,1,5.61,2,4.44,4.44,0,0,1,2.15,4.66c-.42,2.24-.63,3.34-1.07,5.56l-.57,3.39C479.8,189.62,479.88,190.87,480,191.41Zm-18.94-2.23-1.81-.17c-.61,0-1.54-.12-2.74-.19.36-.71.72-2.08,1-5.68.68-9,1-13.47,1.67-22.45a22.06,22.06,0,0,0,0-4.3,3.15,3.15,0,0,0-.62-1.45c1.8-.19,3.71-.42,5.75-.69-.1.77-.2,1.55-.31,2.33-.37,2.76-.76,5.61-1,8.39-.19,2.63-.32,4-.56,6.51l-.4,4.29a6.52,6.52,0,0,0-.17,1c-.13,1.35-.53,5.37-.65,6.71C460.81,187.36,460.89,188.57,461.08,189.18Z"/><path class="cls-3" d="M462.57,156l-.06.4c-.37,2.77-.76,5.64-1,8.44v.07c-.18,2.56-.31,3.93-.55,6.4l-.05.58-.35,3.66a8.22,8.22,0,0,0-.17,1.09c-.13,1.34-.23,2.35-.33,3.35s-.2,2-.33,3.36c-.18,1.9-.26,3.22-.27,4.18h0l-.91-.07a35.62,35.62,0,0,0,.5-4.2c.66-8.77,1-13.26,1.62-21.85l.05-.57a24.17,24.17,0,0,0,0-4.58v0l1.9-.23m16.51,17.33h0l.06,0,.05,0a2.9,2.9,0,0,1,1.39,3.08c-.41,2.22-.63,3.32-1.06,5.53v.09l-.56,3.35a41.79,41.79,0,0,0-.5,4.19l-.42-.07-.49-.06a9.06,9.06,0,0,0,.37-2l.3-2.14,1-6.73.14-1.05a9.68,9.68,0,0,0-.22-4.28M465.33,152.6c-4.3.59-8.26,1-11.92,1.3-.49,0-.76.19-.76.4v.27c0,.4.18.64.48.64h2.54c1.21.07,1.89.52,2,1.32a21.08,21.08,0,0,1,0,4.05c-.67,9-1,13.47-1.67,22.45-.22,3-.53,4.68-.89,5.22a1.52,1.52,0,0,1-1.07.62,20.87,20.87,0,0,1-2.24.12h-.14a.51.51,0,0,0-.52.51c0,.4.09.61.46.63s1.54,0,3.59.13c1.67.07,3,.16,3.94.25.78.06,1.79.15,3,.3l3.64.45.14,0h0a.55.55,0,0,0,.52-.56c0-.32-.15-.51-.56-.6-1.1-.19-1.85-.34-2.26-.46a1.66,1.66,0,0,1-1.13-.81c-.2-.46-.16-2.21.13-5.22.26-2.69.4-4,.65-6.71a6.51,6.51,0,0,1,1.79-3.84,7,7,0,0,1,5.21-2.29,7.59,7.59,0,0,1,1.07.08c2.42.26,4.11,1.37,4.75,3.14a6.64,6.64,0,0,1,.18,3.13l-.15,1.11-.94,6.71-.32,2.25a6.41,6.41,0,0,1-.88,2.88,1.54,1.54,0,0,1-1.06.54c-.39,0-.78,0-1.16,0s-.78,0-1.16,0h-.08a.58.58,0,0,0,0,1.15c.33,0,1.44.12,3.29.31,1.55.15,2.94.34,3.75.45s1.85.29,3.14.52c2.46.44,3.72.7,3.81.7l.14,0h0a.49.49,0,0,0,.49-.48v0a.52.52,0,0,0-.39-.63c-1.19-.29-1.9-.48-2.14-.57a1.73,1.73,0,0,1-1.16-.91c-.18-.5-.08-2.25.4-5.23l.56-3.34c.44-2.22.65-3.33,1.07-5.55a5.91,5.91,0,0,0-2.79-6.21,13.86,13.86,0,0,0-6.2-2.21,12.14,12.14,0,0,0-10.69,3.54c.26-2.83.4-4.25.6-7,.39-4,1-8.13,1.52-12.08,0-.25-.19-.44-.65-.44Z"/></g><g id="M"><path class="cls-2" d="M561.1,214.8c-1.14-.52-2.29-1-3.46-1.53s-2.11-.9-3.12-1.31l.09-.05c1.07-.64,2.12-2.15,3.23-4.63.35-.81.62-1.43.83-1.88l.05-.11c3.46-8.11,5.19-12.17,8.61-20.31l.59-1.4-2.77-1.12-2.36,1.76c1.41-1.13,2.78-2.33,4.1-3.58l.28.12c1.48.63,3.5,1.5,6.05,2.64l2.08.9h0c-1.41.69-2.68,2.28-3.91,4.88l-.64,1.37c-3.13,7-4.58,10.24-7.57,16.78a42.05,42.05,0,0,0-1.93,4.84l0,.12a6.74,6.74,0,0,0-.14,2.33A1.49,1.49,0,0,0,561.1,214.8Zm-24.18-9.43c-.22-2.1-.76-6.31-2-12.85-1.56-8.52-2.51-12.92-4.61-21.4l-.21-.85L527,169.4l-.15.5a5.38,5.38,0,0,0-.35-2.9l1.24.35c2.54.7,4.64,1.3,6.32,1.79l.9.26a52.15,52.15,0,0,0,.9,5.55c1.63,7.51,2.33,11.21,3.57,18.87.34,2.17.64,4.44.9,6.76l.2,1.8c-1.53,1.33-2.67,2.35-3.44,3.05Zm-17.33-5.61-1.74-.5-2.1-.55.28-.18c1.46-1,2.74-3.24,3.8-6.56l3.17-9.66c-.87,2.86-1.78,5.81-2.93,9.61-1.08,3.63-1.27,5.94-.64,7.51A2.49,2.49,0,0,0,519.59,199.76Z"/><path class="cls-3" d="M531.54,170l2,.58c.2,1.58.47,3.16.8,4.71,1.63,7.49,2.33,11.17,3.56,18.78.33,2.14.63,4.4.89,6.69l.11,1-.85.75c-.32-2.39-.85-5.78-1.72-10.25-1.57-8.57-2.53-13-4.63-21.51l-.19-.77m38.06,13.46,2.83,1.25a16.17,16.17,0,0,0-2.41,3.86l-.64,1.36V190c-2.93,6.55-4.43,9.9-7.54,16.7a43.72,43.72,0,0,0-2,5l0,.11,0,.11a5.78,5.78,0,0,0-.12.57l-1.39-.61-1-.43a18.86,18.86,0,0,0,2-3.61q.51-1.17.81-1.83l0,0v0c3.48-8.14,5.22-12.23,8.65-20.4l.89-2.12M520,163.61c-.26,0-.44.18-.53.54l0,.07a.61.61,0,0,0,.46.74c1.86.6,2.88,1,3.08,1.06a4,4,0,0,1,2.16,1.56c.44.83.39,2.25-.19,4.22-.17.57-.42,1.33-.75,2.3-2.31,7-3.47,10.45-5.75,17.41-.95,3-2.07,5-3.24,5.8a4.68,4.68,0,0,1-2.63.57,17.15,17.15,0,0,1-2-.14h-.16a.62.62,0,0,0-.61.5.47.47,0,0,0,0,.16.54.54,0,0,0,.49.58c2.43.5,4.85,1.1,7.25,1.75s4.69,1.38,7,2.19l.17,0h.12a.62.62,0,0,0,.6-.49c.12-.33,0-.59-.44-.75-2.36-1-3.74-2-4.1-2.85-.5-1.23-.26-3.34.68-6.51,2.57-8.45,3.88-12.67,6.49-21.12l.83.23c2.11,8.54,3,12.81,4.59,21.33,1.17,6,1.79,10.36,2.06,13.08.1.42.44.73,1.08,1a1.17,1.17,0,0,0,.57.14,1.31,1.31,0,0,0,.78-.26c1.05-1,2.56-2.31,4.56-4,2.61-2.28,4.8-4.11,6.48-5.54,6.38-5.33,9.67-7.93,16.43-13l.58.23c-3.43,8.16-5.17,12.23-8.65,20.39-.21.45-.49,1.07-.83,1.88-1,2.2-1.91,3.52-2.63,4a2.63,2.63,0,0,1-1.39.39,2.19,2.19,0,0,1-.36,0,28.52,28.52,0,0,1-3-.83l-.06,0h-.12a.53.53,0,0,0-.52.39c-.17.41-.1.67.22.79,2.65.95,5.31,2,8.45,3.35s6.05,2.72,8.72,4.08a.5.5,0,0,0,.17,0,.64.64,0,0,0,.45-.18.61.61,0,0,0,0-.89c-1.38-.78-2.26-1.29-2.63-1.54a2.64,2.64,0,0,1-1.22-1.7,5.2,5.2,0,0,1,.11-1.8,42,42,0,0,1,1.87-4.69c3.07-6.7,4.57-10,7.57-16.76l.63-1.37c1.08-2.28,2.17-3.66,3.18-4.16a3.06,3.06,0,0,1,1.19-.25,3.26,3.26,0,0,1,.62.06,33,33,0,0,1,3.46,1.21l.07,0a.76.76,0,0,0,.21,0,.63.63,0,0,0,.6-.41.55.55,0,0,0,.08-.15.57.57,0,0,0-.36-.73L573.84,182c-3.33-1.49-5.76-2.51-7.28-3.16a64.74,64.74,0,0,1-5.65,4.93c-5.78,4.71-8.58,7.11-14,12-3.27,2.92-4.92,4.47-5.06,4.59-.26-2.35-.56-4.62-.91-6.83-1.22-7.57-1.93-11.36-3.59-19a53.14,53.14,0,0,1-1-6.4c-1.9-.54-4.63-1.34-8.2-2.32l-8-2.27-.19,0Z"/></g><g id="a"><path class="cls-2" d="M591.61,231.33c-2.58-1.53-2.76-2.86-2.67-3.73l.11-1.2a5.27,5.27,0,0,0,1.08-1.27l5.92-9.68h0l.1-.17a7.67,7.67,0,0,0,1.33-5.24c2.48,1.78,3.13,3.09,3.28,3.8a5.06,5.06,0,0,1-1.1,3.36l-.41.66-5.79,8.89c-1.24,1.9-1.73,3.47-1.49,4.78Zm-13.1-7.05c-2.27-1.23-3.62-2.54-4.18-4a2.77,2.77,0,0,1,.1-2.39,4.34,4.34,0,0,1,3-2.21c.32,0,.63,0,.94,0a11,11,0,0,1,2.62.31c.15,0,.41.08.88.19a6.29,6.29,0,0,0-3.29,2.91,5.34,5.34,0,0,0-.24,4.89C578.4,224,578.45,224.16,578.51,224.28ZM586,208.33h-.14l-.1,0a8.26,8.26,0,0,1-3.1-1,3.75,3.75,0,0,1-1-.66c.44-.64,1.74-1,3.56-1H586a19.86,19.86,0,0,1,2.54.34,4.69,4.69,0,0,0-2,2.11A.68.68,0,0,1,586,208.33Z"/><path class="cls-3" d="M599,213.55a2,2,0,0,1,.29.62s.12.63-.9,2.25l-.4.63-5.79,8.89a12.1,12.1,0,0,0-1.41,2.81,1.27,1.27,0,0,1-.33-1l.06-.64a6.23,6.23,0,0,0,.92-1.18l3.81-6.24,3.75-6.13m-20.91,3.58a8.42,8.42,0,0,0-.77,1.14,7,7,0,0,0-.86,2.59,3.7,3.7,0,0,1-.69-1.13l0,0,0,0a1.29,1.29,0,0,1,0-1.07,2.87,2.87,0,0,1,1.91-1.42l.4,0m7.14-13c-2.65,0-4.29.63-4.91,1.81-.54,1,0,1.83,1.62,2.64a9.94,9.94,0,0,0,3.64,1.19,2.15,2.15,0,0,0,.43,0,2.18,2.18,0,0,0,1.8-.94,3.23,3.23,0,0,1,2.46-1.91l.51,0a6.33,6.33,0,0,1,3.2.87c2.44,1.35,2.74,3.59.89,6.68l-.74,1.21c-.36.63-1.18.93-2.38.93a20.5,20.5,0,0,1-5.54-1c-2.67-.74-4.23-1.13-4.83-1.23a12.9,12.9,0,0,0-3-.35c-.38,0-.76,0-1.14,0a5.85,5.85,0,0,0-4.14,3,4.27,4.27,0,0,0-.17,3.61c.7,1.88,2.35,3.49,5,4.9a16.81,16.81,0,0,0,4.8,1.77,14.57,14.57,0,0,0,4.69,0c-.19,2,.93,3.7,3.33,5.13a11.47,11.47,0,0,0,5.41,1.87h.13c.22,0,.35,0,.41-.13a.68.68,0,0,0,0-.4.7.7,0,0,0-.28-.55,1.69,1.69,0,0,0-.28-.12,4.78,4.78,0,0,1-1.82-.71c-1.38-.83-1.28-2.49.35-5l5.8-8.91.41-.65c1.11-1.77,1.56-3.27,1.3-4.48-.43-2-2.66-4.22-6.67-6.45a21.76,21.76,0,0,0-9.5-2.92l-.83,0Zm-.28,22.11a6.67,6.67,0,0,1-3.42-.94,4,4,0,0,1-1.78-2,3.87,3.87,0,0,1,.18-3.55,5,5,0,0,1,4.71-2.61,10.67,10.67,0,0,1,2.21.26,25.78,25.78,0,0,0,5,.8,2.85,2.85,0,0,0,.86-.1l-3.82,6.24a3.87,3.87,0,0,1-2.76,1.81,7.7,7.7,0,0,1-1.17.1Z"/></g><g id="s-3" data-name="s"><path class="cls-2" d="M615.85,244.91c-.2,0-.41,0-.61,0-.54-.06-1.07-.14-1.59-.25a5.69,5.69,0,0,0,2.79-2.14,4.52,4.52,0,0,0,.17-4.76,26.13,26.13,0,0,0-2.58-4.12l-1.42-2a20.21,20.21,0,0,1-3.2-5.28,4,4,0,0,1,.7-3.32,3.55,3.55,0,0,1,3.23-1.4h.42a10.34,10.34,0,0,1,1.26.2,5,5,0,0,0-1.86,1.67c-1.61,2.21.53,5.42,2.28,7.63.6.77.9,1.16,1.48,1.94,2.61,3.47,3.42,5.34,3.65,6.31a4.16,4.16,0,0,1-.88,3.66A4.91,4.91,0,0,1,615.85,244.91Zm-12.78-6.57c-1.41-1.29-1.56-1.8-1.57-1.84a6.49,6.49,0,0,1,.52-1.73A14.8,14.8,0,0,0,603.07,238.34Zm23-6.82a13.37,13.37,0,0,0-.44-2.79c.24.2.49.39.74.56l.1.07.67.42C626.78,230.41,626.43,231,626.11,231.52Z"/><path class="cls-3" d="M611.28,224a5.32,5.32,0,0,0,.05,3c-.17-.34-.33-.69-.48-1a2.45,2.45,0,0,1,.43-1.92m7.12,14.05a7.14,7.14,0,0,1,.71,1.71,2.6,2.6,0,0,1-.57,2.34l0,0,0,0a2.79,2.79,0,0,1-.38.39,6,6,0,0,0,.28-4.5m-5.07-17.9a5,5,0,0,0-4.42,2,5.49,5.49,0,0,0-.93,4.68,21.49,21.49,0,0,0,3.42,5.7l1.43,2a25,25,0,0,1,2.48,4,3,3,0,0,1-.11,3.16,4.14,4.14,0,0,1-2.86,1.78h-.46A6.48,6.48,0,0,1,607.8,242a9.49,9.49,0,0,1-3.13-3.78,13.19,13.19,0,0,1-1.35-5.95.54.54,0,0,0-.24-.53l-.38-.23a1.09,1.09,0,0,0-.5-.16.31.31,0,0,0-.3.16c-.89,1.6-2.09,4.36-1.85,5.35.41,1.67,4.21,4.5,6.89,6.34a15.93,15.93,0,0,0,8.12,3.16,5.24,5.24,0,0,0,.79,0,6.4,6.4,0,0,0,5-2.36,5.63,5.63,0,0,0,1.2-5c-.37-1.55-1.63-3.82-3.89-6.83-.6-.81-.91-1.21-1.52-2-2.23-2.82-3-4.79-2.23-5.85a3.11,3.11,0,0,1,2.66-1.49,7.33,7.33,0,0,1,4,1.6c2.6,1.79,3.82,4.79,3.58,8.9a.93.93,0,0,0,.35.72l.26.16a1.32,1.32,0,0,0,.64.22.31.31,0,0,0,.28-.13c.64-1,1.65-2.8,3.12-5.05-.73-.46-1.4-.9-2-1.24a16.35,16.35,0,0,1-1.8-1.51,32.19,32.19,0,0,0-3.87-3.31,15.66,15.66,0,0,0-7.78-3.09Z"/></g><g id="s-4" data-name="s"><path class="cls-2" d="M638.21,262.58a5.08,5.08,0,0,1-1.1-.12,14.69,14.69,0,0,1-1.76-.47,5.69,5.69,0,0,0,3.14-1.9,4.62,4.62,0,0,0,.63-4.73,27.16,27.16,0,0,0-2.27-4.42l-1.24-2.08a20.66,20.66,0,0,1-2.74-5.63,4,4,0,0,1,1-3.24,3.16,3.16,0,0,1,2.65-1.13,6.46,6.46,0,0,1,1.12.1c.5.1,1,.23,1.48.38a5,5,0,0,0-2.14,1.51c-1.74,2.13-.06,5.32,1.58,7.87l1.36,2.15c2.4,3.91,2.92,5.83,3,6.62a4.19,4.19,0,0,1-1.22,3.62A4.93,4.93,0,0,1,638.21,262.58Zm-12.67-7.8c-1.25-1.34-1.45-1.89-1.48-2.08a6.09,6.09,0,0,1,.69-1.77A14.9,14.9,0,0,0,625.54,254.78Zm23.68-4.59a13,13,0,0,0-.19-2.94c.22.21.43.41.66.61s.49.43.78.67C650,249.13,649.59,249.69,649.22,250.19Z"/><path class="cls-3" d="M635.31,240.66a5.34,5.34,0,0,0-.42,3.76c-.2-.5-.39-1-.55-1.51A2.47,2.47,0,0,1,635,241l.07-.07.06-.07a.93.93,0,0,1,.2-.2m5.52,15.1a7.49,7.49,0,0,1,.62,1.91v.07a2.62,2.62,0,0,1-.79,2.3l0,0,0,0a2.93,2.93,0,0,1-.65.51,6.08,6.08,0,0,0,.85-4.83m-4.31-18.4a4.54,4.54,0,0,0-3.75,1.62,5.49,5.49,0,0,0-1.37,4.59,22.31,22.31,0,0,0,2.92,6.06l1.27,2.11a26.64,26.64,0,0,1,2.16,4.22,3.11,3.11,0,0,1-.41,3.17,4.2,4.2,0,0,1-3,1.49,6.72,6.72,0,0,1-4.42-1.87,9.75,9.75,0,0,1-2.8-4.11,13.44,13.44,0,0,1-.82-6.09.56.56,0,0,0-.18-.56l-.38-.26a1.12,1.12,0,0,0-.49-.15.35.35,0,0,0-.31.15c-1,1.51-2.48,4.11-2.34,5.17.23,1.73,3.83,4.9,6.35,7a16.42,16.42,0,0,0,7.86,4,6.27,6.27,0,0,0,1.43.16,6.38,6.38,0,0,0,4.56-1.9,5.68,5.68,0,0,0,1.66-4.88c-.2-1.56-1.26-4-3.24-7.23l-1.37-2.16c-2-3-2.56-5-1.69-6.09a3.14,3.14,0,0,1,2.45-1.22,6.93,6.93,0,0,1,4.18,2c2.45,2.05,3.41,5.19,2.79,9.29a.93.93,0,0,0,.29.75l.25.19a1.25,1.25,0,0,0,.66.29A.31.31,0,0,0,649,253c.72-.92,1.9-2.64,3.58-4.76a18.64,18.64,0,0,1-1.89-1.51A16.75,16.75,0,0,1,649,245a32.91,32.91,0,0,0-3.58-3.7,15.74,15.74,0,0,0-7.56-3.87,9.44,9.44,0,0,0-1.36-.11Z"/></g><g id="a-2" data-name="a"><path class="cls-2" d="M659.84,287.45l-.28-.33c-2.1-2.39-1.92-3.8-1.61-4.66l.38-1a5.27,5.27,0,0,0,1.5-.92c2-1.78,3-2.74,4.85-4.34l3.59-3.18h-.07l.23-.2a7.66,7.66,0,0,0,2.82-4.73c2.08,2.74,2.26,4.27,2.22,4.88-.06.84-.76,1.85-2,2.94l-.6.51-8.19,6.84C660.89,284.7,660,286.08,659.84,287.45Zm-11.1-11.4c-1.93-2-2.91-3.73-3-5.27a2.87,2.87,0,0,1,.78-2.33,4.24,4.24,0,0,1,3-1.23,3.52,3.52,0,0,1,.56,0,12.08,12.08,0,0,1,3.44,1.37l.92.53a6.16,6.16,0,0,0-4.12,1.82,5.32,5.32,0,0,0-1.63,4.7C648.7,275.8,648.71,275.93,648.74,276.05Zm12.09-13.19a.67.67,0,0,1-.34-.09l-.07,0-.06,0a8.73,8.73,0,0,1-2.77-2,3.77,3.77,0,0,1-.82-1,1.86,1.86,0,0,1,1.19-.31,10.18,10.18,0,0,1,3.31.75,19.82,19.82,0,0,1,2.55,1.21,4.82,4.82,0,0,0-2.64,1.39A.6.6,0,0,1,660.83,262.86Z"/><path class="cls-3" d="M649.51,268.72l.3,0c.23.05.45.11.67.18a8.34,8.34,0,0,0-1.19,1,7,7,0,0,0-1.61,2.29,4,4,0,0,1-.45-1.49v-.13a1.31,1.31,0,0,1,.34-1,2.77,2.77,0,0,1,2-.8m22.07,2.69,0,.07h-.08l0-.07m.2.47a2.65,2.65,0,0,1,.19.95c0,.23-.35.91-1.52,1.91l-.56.49-8.19,6.84a12.15,12.15,0,0,0-2.21,2.33,1.7,1.7,0,0,1-.13-1.42l.17-.46a7.06,7.06,0,0,0,1.29-.89l0,0,0,0c1.95-1.77,3-2.73,4.85-4.34l.59-.52,5.48-4.85m-13.82-14a3.09,3.09,0,0,0-2.29.79c-.77.78-.49,1.79.83,3.08a10.43,10.43,0,0,0,3.24,2.29,2.2,2.2,0,0,0,2.44-.17,3.26,3.26,0,0,1,2.45-1.09,2.92,2.92,0,0,1,.51,0,6.57,6.57,0,0,1,3.38,2c2,2.09,1.61,4.37-1.08,6.81l-1.08,1a2.63,2.63,0,0,1-2.6.16,22.62,22.62,0,0,1-5.16-2.69c-2.29-1.54-3.76-2.43-4.33-2.73a13.4,13.4,0,0,0-3.93-1.56,5.77,5.77,0,0,0-4.91,1.63,4.36,4.36,0,0,0-1.2,3.46c.13,2,1.38,4.12,3.54,6.34a18.68,18.68,0,0,0,4.19,3.25,16.39,16.39,0,0,0,4.58,1.49c-.7,1.92-.08,3.91,1.85,6.11a12.44,12.44,0,0,0,4.72,3.57,1.34,1.34,0,0,0,.36.06.33.33,0,0,0,.21-.06.84.84,0,0,0,.14-.37.76.76,0,0,0-.13-.65,1.45,1.45,0,0,0-.23-.19,6,6,0,0,1-1.59-1.28c-1.11-1.27-.54-2.85,1.75-4.77l8.22-6.86.58-.51c1.59-1.36,2.46-2.69,2.54-4,.15-2.11-1.46-5-4.7-8.44a22.88,22.88,0,0,0-8.47-5.84,11.68,11.68,0,0,0-3.83-.84Zm-1.64,22.4a4.37,4.37,0,0,1-.72-.06,7.18,7.18,0,0,1-4.27-2.27,4.27,4.27,0,0,1-1.16-2.53,3.83,3.83,0,0,1,1.19-3.4,4.67,4.67,0,0,1,3.35-1.39,8.23,8.23,0,0,1,4.08,1.29c2.8,1.62,4.65,2.53,5.53,2.53-2.21,1.95-3.31,2.93-5.47,4.89a3.87,3.87,0,0,1-2.53.94Z"/></g><g id="g"><path class="cls-2" d="M677.49,321.83a6.17,6.17,0,0,1-2.92-.73,14.2,14.2,0,0,1-2.33-1.35,6.2,6.2,0,0,0,1,.09,6.35,6.35,0,0,0,3.49-1,4.61,4.61,0,0,0,2.21-4.56c-.19-1.85-1.38-4.26-3.53-7.13l-1.65-2.17c-.78-1.06-1.57-2.17-2.39-3.37l0,0V301l-.34-.15-.59-1.16c-.72-1.42-1.79-3.92-.8-4.72a1.1,1.1,0,0,1,.76-.23,4.25,4.25,0,0,1,1.4.3,23,23,0,0,1,2.39,1.18,3.16,3.16,0,0,0-.89.47,2.54,2.54,0,0,0-1,1.74c-.15,1.25.49,2.72,2,4.61s2.29,2.94,3.89,5.06c4.09,5.42,4.59,8.55,4.3,10.23a3.71,3.71,0,0,1-1.76,2.54A6.13,6.13,0,0,1,677.49,321.83Zm13.68-15.24a6.79,6.79,0,0,1-2.92-.73,19.1,19.1,0,0,1-3.94-2.81,7.32,7.32,0,0,0,1.06.16h.26a8.55,8.55,0,0,0,5.21-1.76,7.71,7.71,0,0,0,3.34-4.67c.25.56.47,1.13.67,1.72l0,.09.3,3.05c.3,3-1,3.86-1.41,4.14A4.49,4.49,0,0,1,691.17,306.59Zm-30.33-1.08a14.35,14.35,0,0,1-.75-2.44c-.36-1.75-.16-3,.58-3.59a2.86,2.86,0,0,1,1.82-.64,2.8,2.8,0,0,1,.91.15,14.54,14.54,0,0,1,2.4,1,7.05,7.05,0,0,0-2.76,1.28A6.09,6.09,0,0,0,660.84,305.51Zm17.45-10.74c-2.5-5.39-1.13-7.38.17-8.42a4.14,4.14,0,0,1,2.71-.94,8.62,8.62,0,0,1,3.06.67,15.92,15.92,0,0,1,2.54,1.37,9.08,9.08,0,0,0-8.46,7.22Z"/><path class="cls-3" d="M681.17,286.91a5.49,5.49,0,0,1,1.27.17,10.58,10.58,0,0,0-4,3.45c-.28-2,.57-2.72,1-3a2.59,2.59,0,0,1,1.74-.59M670.8,296.3l.45.14.22.09a4.07,4.07,0,0,0-.4.81,5.69,5.69,0,0,1-.27-1M693.61,301l.08.77c.21,2.09-.49,2.57-.75,2.74a3,3,0,0,1-1.77.57,5.56,5.56,0,0,1-2.22-.57l-.43-.24a10.1,10.1,0,0,0,3.19-1.61,9.44,9.44,0,0,0,1.9-1.66m-13.08,13.85a6.18,6.18,0,0,1,.54,3.21A2.14,2.14,0,0,1,680,319.6a4.65,4.65,0,0,1-2.51.73h-.34l.39-.24a6.16,6.16,0,0,0,3-5.21m.64-31a5.61,5.61,0,0,0-3.65,1.27c-2.87,2.29-2.78,6.06,0,11.41a24.65,24.65,0,0,0-5.17-2.94,5.54,5.54,0,0,0-1.92-.4,2.57,2.57,0,0,0-1.7.57c-1.42,1.14-1.25,3.31.41,6.56a17.75,17.75,0,0,0-5.27-2.82,4.43,4.43,0,0,0-4.17.77q-1.8,1.53-1.08,5c.58,2.89,2.27,6.07,5,9.68,3.64,4.75,7,7.91,10.21,9.38a7.7,7.7,0,0,0,7.74-.3c3.9-2.53,3.31-7.67-2.16-14.93-1.56-2.06-2.34-3.08-3.93-5.09s-2.12-3.57-1.28-4.22a1.83,1.83,0,0,1,1.13-.33,8,8,0,0,1,3.55,1.22c.53.79,1,1.44,1.4,2a20.7,20.7,0,0,0,7.29,6.46,8.38,8.38,0,0,0,3.56.89,6,6,0,0,0,3.44-1.08c1.62-1.09,2.33-2.93,2.07-5.53q2.91,4.18,4.32,6.53a.71.71,0,0,0,.58.28h2c.2-.12.2-.33,0-.61-2.54-3.28-5-6.52-7.29-9.68a25.55,25.55,0,0,0-3.93-7.28,18.23,18.23,0,0,0-7.56-6.05,10.11,10.11,0,0,0-3.61-.77Zm4.46,17.8h-.15a5.72,5.72,0,0,1-4.32-2.46,5.94,5.94,0,0,1-1.38-4.29,7.59,7.59,0,0,1,7.13-6,5.93,5.93,0,0,1,4.61,2.56v0a5.75,5.75,0,0,1,1.31,4.35,6.27,6.27,0,0,1-2.85,4.34,7,7,0,0,1-4.35,1.49Zm-12.34,16.63a4.75,4.75,0,0,1-2-.43,14.5,14.5,0,0,1-6.08-5.12,13.34,13.34,0,0,1-2.74-5.69,4.44,4.44,0,0,1,1.48-4.62,5.52,5.52,0,0,1,3.36-1.14,5.2,5.2,0,0,1,1,.09,11.06,11.06,0,0,1,1.62.56v0c1,1.52,1.94,2.77,2.72,3.83l1.64,2.16c2,2.69,3.08,4.85,3.24,6.42a3.16,3.16,0,0,1-1.55,3.12,4.82,4.82,0,0,1-2.66.8Z"/></g><g id="e-4" data-name="e"><path class="cls-2" d="M714.28,341.43q-1.31-2.58-2.63-5.07h.23a2.14,2.14,0,0,0,1-.25l.23-.14a8,8,0,0,0,3.59-4.57l0,0a12.39,12.39,0,0,1,0,5.74A6.88,6.88,0,0,1,714.28,341.43Zm-20-6.59a16.7,16.7,0,0,1-1.88-9.78,9,9,0,0,1,4.23-6.74,8.76,8.76,0,0,1,4.72-1.41,11.76,11.76,0,0,1,4.78,1.14,18.79,18.79,0,0,1,4.55,3.08l-.61-.19a12.17,12.17,0,0,0-6.51.11l-1.85.56,0,0a7.17,7.17,0,0,0-2,.86,11,11,0,0,0-5.54,8.55A11.69,11.69,0,0,0,694.29,334.84Z"/><path class="cls-3" d="M701.36,318.41a9.82,9.82,0,0,1,3.65.79,12,12,0,0,0-1.87.42l-3.7,1.11.09.15-.57.32a12.56,12.56,0,0,0-5.18,5.6,9.67,9.67,0,0,1,.12-1.53v-.11a7.46,7.46,0,0,1,3.54-5.57,7.1,7.1,0,0,1,3.91-1.18m14.1,17.7c0,.22-.08.44-.13.66a8.13,8.13,0,0,1-.72,2l-.76-1.47.09-.06a9,9,0,0,0,1.52-1.14m-14.1-20.7a10.17,10.17,0,0,0-5.52,1.64,10.53,10.53,0,0,0-4.91,7.79c-.58,4,.46,8.16,3.09,12.67a24.22,24.22,0,0,0,4.52,5.72,16,16,0,0,0,6.48,3.59,1.61,1.61,0,0,0,.48.08h.18c.12-.05.21-.33.21-.74a1.86,1.86,0,0,0-.14-.7,1,1,0,0,0-.57-.52,14.55,14.55,0,0,1-4.32-2.28,17,17,0,0,1-3.88-4.86,10.59,10.59,0,0,1-1.33-6.6,9.49,9.49,0,0,1,4.81-7.39,5.11,5.11,0,0,1,1.67-.69h.09c.88.35,2.5,4,3.82,6.33q3.5,5.9,6.9,12.67a2,2,0,0,0,.76.89,1.15,1.15,0,0,0,.41.08,1.18,1.18,0,0,0,.55-.14c1.72-.92,3-2.83,3.59-5.49.89-3.74.09-7.82-2.36-12a20.46,20.46,0,0,0-9.13-8.73,13.16,13.16,0,0,0-5.4-1.27Zm10.52,19.46a.68.68,0,0,1-.6-.34c-1.6-2.56-3.09-5-4.45-7.29-.66-1-1.55-2.64-2.82-4.75a10.25,10.25,0,0,1,3-.44,10.59,10.59,0,0,1,2.68.34,7.82,7.82,0,0,1,4.85,3.73,5.92,5.92,0,0,1,.74,4.86,6.57,6.57,0,0,1-3,3.75l-.11.06a.61.61,0,0,1-.32.08Z"/></g></g><g id="手のイメージ"><g id="下側の手" class="cls-7"><path class="cls-4" d="M233.44,850.2c44.79,4.52,97.55-6.59,145-27.17,18.68-8.07,38.65-19.29,43-30.18,3.15-7.88-3.18-13.48-13.07-15.77s-22.92-1.82-35.88-1.06c-115.59,7.48-249.21,30.9-369-.65,31.4,46.87,81.66,89,140.65,110.57,59,22.56,126.66,24.54,192.94,13.87,60.25-8.29,137.27-42.58,212.93-68.63,75.73-26.89,150.19-45.59,205.37-40.95,15-1.19,76-4.83,77.54-10.56,1.65-7.95-15.25-23.22-30.7-33.51-39.64-29.3-112-34.35-185-18-73,14.68-146.75,50.8-189.32,64.13"/><path class="cls-2" d="M264.65,906.5c-11.87,0-23.89-.49-35.72-1.46-48.43-4.13-94.48-18.63-133.16-41.95A298.1,298.1,0,0,1,3.34,775.67a.12.12,0,0,1,.12-.12C44.8,786.35,91,791.6,144.6,791.6c2.61,0,5.23,0,7.84,0,44.57-.43,88.78-4.11,133.92-8.18l18.84-1.7-9.92.93c-13.71,1.29-27.88,2.62-41.82,3.78-32.08,2.66-70.12,5.38-109.12,5.38-51.7,0-96.45-4.92-136.8-15l-3.88-1,2.28,3.29c5.08,7.31,10.58,14.47,16.35,21.29A299.17,299.17,0,0,0,125.36,878.4C166,896.83,212,906.18,262.2,906.18l4.4,0a469.88,469.88,0,0,0,137-22.36c28.82-9.12,57.55-19.88,85.34-30.29,18.28-6.84,37.17-13.92,55.92-20.47,42.87-15,92.95-31.6,144.83-39.44a320.13,320.13,0,0,1,48-4c4,0,8.06.1,11.94.31,2.07.12,4.26.18,6.5.18,3.29,0,6.6-.13,9.91-.34l-7.34.54c-1.58.12-3.24.18-5.09.18-3,0-6.07-.16-9-.31s-6.14-.31-9.21-.31h-1.19c-20.58.31-42.37,2.93-68.59,8.27C612.26,809,561.57,826.86,514.22,844.28c-10.11,3.71-20.37,7.58-30.29,11.32-36.15,13.64-73.54,27.74-111.56,37.43A437.33,437.33,0,0,1,264.65,906.5Zm-9.91-54.93c-7.16,0-14.27-.34-21.16-1h-.06a.14.14,0,0,1-.11-.06.42.42,0,0,1,0-.1c7,.67,14.17,1,21.36,1,35.6,0,74-8.13,114.07-24.18a241,241,0,0,0,29.27-13.67c8.24-4.67,16.68-9.85,21.56-17.3,2.36-3.61,3.14-6.84,2.32-9.66a8.49,8.49,0,0,1,.43,2.76c-.06,6.18-6.08,11.72-10.6,15.35-15.32,12.29-34.5,19.82-54.45,27.09-36.1,13.12-70.62,19.78-102.59,19.78Zm173-58.86s-.05-.12,0-.16c8.65-2.74,17-5.83,23.36-8.22,11.14-4.2,22.41-8.6,33.3-12.86l13.3-5.18c-6.69,2.61-13.21,5.18-19.46,7.64l-6,2.38c-14.46,5.73-29.41,11.66-44.47,16.4Zm344.68-3.44c2.79-.23,5.57-.5,8.31-.76,2.57-.25,5.14-.5,7.71-.72,1.93-.17,3.87-.32,5.82-.48,4.06-.33,8.17-.66,12.27-1.09-9.12,1.1-18.32,1.82-27.32,2.53Zm47.81-5c2.58-.51,5.14-1.11,7.65-1.82l.58-.15c1.89-.47,3.51-1,4.2-2.13,1.5-2.58-1-6.63-3.69-10.25-6.7-9-16.15-16.13-24.51-21.89a148.44,148.44,0,0,0-52.23-22.91c-16.89-3.87-34.86-5.75-54.94-5.75-3.61,0-7.34.06-11.07.18-43.13,1.46-88.91,11.07-144.08,30.25-9.92,3.45-19.88,7.12-29.6,10.82,22.3-8.5,45.06-16.67,68.12-23.25,43.07-12.25,80.94-18.21,115.77-18.21A282.74,282.74,0,0,1,726,720.63c22.56,2.36,41.49,7.23,57.89,14.88a145.15,145.15,0,0,1,23.77,14.54c7.39,5.38,15.72,12,21.64,20,1.84,2.49,5.8,8.52,2.89,10.82-2.26,1.77-6.15,2.4-9.28,2.91l-1.71.29ZM418.72,782c-5.15-4.1-15.88-6.17-32-6.17-5.11,0-9.43.23-11.06.31q-11.81.62-23.66,1.5c9.94-.8,20.16-1.6,30.25-1.95,2.85-.1,6.08-.22,9.31-.22,8.62,0,14.88.85,20.3,2.74A21.93,21.93,0,0,1,418.72,782Z"/><path class="cls-3" d="M696.44,717.61c-39.29,0-78.64,7.59-116.18,18.27-44.39,12.67-86.65,30.8-129.71,47-7.67,2.89-15.39,5.69-23.21,8.16a1.61,1.61,0,0,0,.34,3.14,1.67,1.67,0,0,0,.52-.09c17.16-5.4,33.86-12.21,50.57-18.81,21.18-8.36,42.36-16.69,63.87-24.16,46.1-16,94.51-28.51,143.64-30.17q5.51-.18,11-.18a244.25,244.25,0,0,1,54.61,5.72,147.28,147.28,0,0,1,51.71,22.68c8.72,6,17.79,13,24.11,21.49,1.26,1.7,4.87,6.56,3.64,8.65-.51.89-3,1.33-3.89,1.59-12.52,3.57-26.23,4.23-39.16,5.35-10.77.93-21.55,2.29-32.25,2.29q-3.23,0-6.43-.18-6-.31-12-.31a324.11,324.11,0,0,0-48.2,4c-49.72,7.52-97.8,23-145.09,39.51s-93.5,35.65-141.23,50.76a468.93,468.93,0,0,1-136.52,22.28l-4.38,0c-46.87,0-93.54-8.27-136.22-27.65A295.68,295.68,0,0,1,23.44,799.37q-8.65-10.2-16.27-21.18c-1.38-.34-2.76-.7-4.14-1.06l1.83-2.32c.76,1.13,1.53,2.26,2.31,3.38,44.88,11.26,91,15.09,137.17,15.09,36.51,0,73.09-2.39,109.25-5.39,40.69-3.37,81.36-8.09,122.13-10.22,2.13-.11,6.17-.31,11-.31,16.45,0,42,2.29,31.67,18.07-4.85,7.39-13.46,12.51-21,16.81a239.67,239.67,0,0,1-29.09,13.59c-35.68,14.27-74.66,24.07-113.52,24.07-7.12,0-14.22-.32-21.31-1h-.19c-1.88,0-1.81,3,.19,3.17h0q10.62,1,21.3,1c35.14,0,70.4-8,103.11-19.87,18.93-6.9,39.09-14.68,54.87-27.33,4.94-4,11.09-9.72,11.16-16.5.06-6.52-5.85-10.56-11.54-12.54-6.53-2.29-13.72-2.83-20.8-2.83-3.16,0-6.3.11-9.35.22-10.75.38-21.48,1.24-32.19,2.11-21.26,1.67-42.51,3.65-63.77,5.56-44.5,4-89.09,7.75-133.8,8.18l-7.83,0c-47.36,0-94.87-4-140.74-16a1.83,1.83,0,0,0-.4-.05,1.63,1.63,0,0,0-1.58,1.2A1.54,1.54,0,0,0,2,776.42a297.39,297.39,0,0,0,92.95,88c40.45,24.38,86.59,38.14,133.81,42.16Q246.71,908,264.65,908a439,439,0,0,0,108.09-13.51c48.56-12.39,95.12-31.57,142-48.8,49.36-18.15,99.35-35.57,151.07-46.1,22.46-4.57,45.33-7.9,68.31-8.24h1.17c6.07,0,12.19.62,18.26.62,1.74,0,3.47-.05,5.2-.18,6.18-.46,12.37-.9,18.55-1.39,14.74-1.16,29.64-2.26,44.19-4.87,3.61-.65,8.65-1.14,11.66-3.5,4-3.17-.46-10-2.61-12.89-5.88-8-13.94-14.46-21.95-20.28a146.51,146.51,0,0,0-24-14.71c-18.26-8.52-38.31-12.91-58.37-15a281.36,281.36,0,0,0-29.73-1.53Z"/></g><g id="上側の手" class="cls-7"><path class="cls-4" d="M603.06,57.5c-44.8-4.51-97.56,6.55-145,27.19-18.68,8-38.66,19.29-43,30.16-3.16,7.88,3.16,13.48,13.07,15.84s22.91,1.8,35.87,1.05c115.65-7.47,249.21-30.9,369,.67-31.4-46.93-81.66-89.06-140.64-110.59C633.44-.76,565.74-2.76,499.46,7.93,439.21,16.2,362.19,50.5,286.53,76.56c-75.72,26.89-150.24,45.59-205.36,40.94-15,1.19-76,4.85-77.54,10.56C2,136,18.88,151.29,34.32,161.56c39.74,29.22,112.06,34.27,185.08,17.88,73-14.67,146.76-50.8,189.32-64.13"/><path class="cls-2" d="M140,188.91a281.78,281.78,0,0,1-29.53-1.52C87.86,185,68.93,180.14,52.58,172.5A144.35,144.35,0,0,1,28.8,157.92C21.41,152.55,13.08,146,7.16,138c-1.84-2.5-5.79-8.55-2.9-10.84,2.26-1.76,6.16-2.39,9.29-2.9l1.71-.29.66-.12c-2.48.5-4.93,1.08-7.34,1.76l-.58.15c-1.89.48-3.51,1-4.19,2.14-1.52,2.58,1,6.64,3.72,10.27,6.61,9,16.09,16.07,24.48,21.87a148,148,0,0,0,52.22,22.94c16.9,3.87,34.91,5.76,55.06,5.76,3.57,0,7.26-.06,11-.18,43.14-1.47,88.92-11.08,144.08-30.26,20.83-7.24,41.28-15.24,63.93-24.18l5.77-2.29c14.53-5.76,29.56-11.71,44.7-16.49h0a.31.31,0,0,1,0,.18c-8.65,2.72-17,5.81-23.35,8.21-11.12,4.19-22.37,8.59-33.24,12.83-31.21,12.19-63.48,24.79-96.35,34.17C212.73,183,174.84,188.91,140,188.91Zm305-56.45c-8.62,0-14.88-.84-20.31-2.73a22.73,22.73,0,0,1-6.41-3.41c5.31,3.87,15.89,5.83,31.56,5.83,5.11,0,9.44-.23,11.07-.31,6.14-.32,12.3-.71,18.47-1.13-8.29.65-16.74,1.25-25.08,1.54C451.42,132.35,448.19,132.46,445,132.46ZM833,132.4c-41.29-10.79-87.4-16-141-16-2.66,0-5.33,0-8,0-44.59.41-88.8,4.1-133.93,8.17l-2.75.25c11.77-1.11,23.8-2.22,35.67-3.21,32.06-2.66,70.09-5.38,109.09-5.38,51.72,0,96.47,4.92,136.83,15l3.88,1L830.57,129c-5.09-7.33-10.6-14.5-16.38-21.32A299.13,299.13,0,0,0,711.13,29.57C670.5,11.14,624.49,1.8,574.35,1.8l-4.46,0a470.28,470.28,0,0,0-137,22.35c-28.82,9.12-57.55,19.89-85.33,30.29-18.28,6.85-37.18,13.93-55.93,20.48-42.93,15-93.06,31.64-144.83,39.44a320,320,0,0,1-47.93,4c-4,0-8.08-.1-12-.31-2.07-.12-4.26-.18-6.51-.18-2.85,0-5.73.1-8.6.26l6-.44c1.6-.13,3.29-.19,5.16-.19,3,0,6,.16,9,.31s6.11.31,9.17.31h1.2c20.6-.3,42.39-2.92,68.57-8.25C224.36,99,277.06,80.33,322.26,63.72c10.06-3.7,20.26-7.55,30.13-11.27C388.6,38.79,426,24.67,464.11,15A437.78,437.78,0,0,1,571.82,1.5c11.87,0,23.89.49,35.73,1.46C655.93,7.07,702,21.57,740.74,44.88a297.83,297.83,0,0,1,92.41,87.39A.12.12,0,0,1,833,132.4ZM30.47,121.7c8.94-1.07,18-1.77,26.76-2.47l5.68-.44c-2.41.21-4.81.44-7.18.67-2.57.25-5.13.49-7.7.72l-5.76.47C38.37,121,34.42,121.29,30.47,121.7Zm384.14-.13a8.32,8.32,0,0,1-.5-3c.07-6.2,6.09-11.72,10.61-15.33C440.1,91,460.05,83.14,479.17,76.19,515.29,63.06,549.81,56.4,581.78,56.4c6.94,0,13.84.32,20.52,1l.65.1c.11,0,.14,0,.15.07a.3.3,0,0,1,0,.1c-7-.66-14.07-1-21.21-1-35.78,0-74.21,8.13-114.22,24.16a242.54,242.54,0,0,0-29.26,13.68c-8.24,4.67-16.69,9.84-21.57,17.29C414.48,115.43,413.72,118.72,414.61,121.57Z"/><path class="cls-3" d="M571.82,0A438.93,438.93,0,0,0,463.74,13.51c-48.56,12.38-95.12,31.56-142,48.8C272.39,80.45,222.4,97.84,170.67,108.4c-22.46,4.57-45.33,7.89-68.3,8.22H101.2c-6,0-12.15-.62-18.19-.62-1.76,0-3.52.06-5.27.19-6.18.46-12.36.89-18.55,1.37-14.74,1.17-29.63,2.26-44.19,4.88-3.61.65-8.65,1.14-11.67,3.5-4,3.16.47,10,2.62,12.9,5.87,8,13.94,14.45,21.94,20.27a146.34,146.34,0,0,0,24,14.74c18.26,8.53,38.31,12.91,58.37,15A286,286,0,0,0,140,190.41c39.31,0,78.67-7.6,116.22-18.28,44.4-12.67,86.65-30.79,129.71-47,7.67-2.9,15.38-5.7,23.22-8.16a1.62,1.62,0,0,0-.36-3.14,1.59,1.59,0,0,0-.51.08c-17.16,5.41-33.86,12.21-50.57,18.81-21.18,8.37-42.36,16.69-63.87,24.16-46.1,16-94.52,28.51-143.64,30.18q-5.44.18-10.91.18a244.67,244.67,0,0,1-54.73-5.73,147.11,147.11,0,0,1-51.7-22.71c-8.72-6-17.8-13-24.11-21.5-1.25-1.69-4.88-6.56-3.64-8.65.51-.88,3-1.33,3.88-1.6,12.54-3.55,26.24-4.22,39.17-5.34,10.77-.93,21.55-2.29,32.26-2.29q3.21,0,6.42.18,6,.31,12,.31a322.15,322.15,0,0,0,48.16-4c49.78-7.5,97.8-23,145.09-39.51s93.5-35.64,141.23-50.75A468.66,468.66,0,0,1,569.9,3.32l4.45,0c46.84,0,93.49,8.28,136.15,27.63A295.86,295.86,0,0,1,813,108.61q8.67,10.22,16.3,21.21c1.38.34,2.76.7,4.14,1.06l-1.82,2.33c-.77-1.14-1.54-2.27-2.32-3.39-44.89-11.26-91-15.09-137.2-15.09-36.5,0-73.06,2.39-109.21,5.39-40.71,3.38-81.37,8.09-122.14,10.22-2.13.11-6.17.31-11,.31-16.44,0-42-2.29-31.66-18.07,4.84-7.39,13.44-12.5,21-16.8a242.11,242.11,0,0,1,29.1-13.6C503.94,67.89,543,58.13,581.93,58.13q10.61,0,21.17,1h.18c1.89,0,1.82-3-.18-3.17l0-.05q-10.6-1-21.28-1c-35.15,0-70.41,8-103.12,19.88-19,6.89-39.1,14.68-54.88,27.33-4.95,4-11.09,9.71-11.17,16.49-.06,6.52,5.86,10.56,11.55,12.54,6.54,2.29,13.72,2.82,20.8,2.82,3.16,0,6.3-.1,9.35-.21,10.75-.37,21.47-1.25,32.18-2.11C507.76,130,529,128,550.26,126.06c44.5-4,89.1-7.75,133.81-8.16,2.67,0,5.33,0,8,0,47.31,0,94.77,4,140.57,16a1.72,1.72,0,0,0,.39,0,1.6,1.6,0,0,0,1.45-2.37,297.4,297.4,0,0,0-93-87.94C701,19.25,654.9,5.48,607.67,1.46Q589.76,0,571.82,0Z"/></g></g></g></g></g></g></svg>